<?xml version="1.0" encoding="UTF-8"?>
<!DOCTYPE svg PUBLIC "-//W3C//DTD SVG 1.1//EN" "http://www.w3.org/Graphics/SVG/1.1/DTD/svg11.dtd">
<!-- Creator: CorelDRAW 2020 (64-Bit) -->
<svg xmlns="http://www.w3.org/2000/svg" xml:space="preserve" width="193.818mm" height="217.809mm" version="1.1" style="shape-rendering:geometricPrecision; text-rendering:geometricPrecision; image-rendering:optimizeQuality; fill-rule:evenodd; clip-rule:evenodd"
viewBox="0 0 2797.78 3144.1"
 xmlns:xlink="http://www.w3.org/1999/xlink"
 xmlns:xodm="http://www.corel.com/coreldraw/odm/2003">
 <defs>
  <style type="text/css">
   <![CDATA[
    .fil3 {fill:none}
    .fil1 {fill:#2B2A29}
    .fil0 {fill:#2B2A29}
    .fil2 {fill:#EF7F1A}
    .fil4 {fill:#7688A1}
    .fil7 {fill:black}
    .fil8 {fill:#515151}
    .fil5 {fill:#FF6B01}
    .fil6 {fill:white}
    .fil10 {fill:#C7C7C7}
    .fil9 {fill:#989898}
   ]]>
  </style>
 </defs>
 <g id="Слой_x0020_1">
  <metadata id="CorelCorpID_0Corel-Layer"/>
  <path class="fil0" d="M798.42 215.14l1177.91 -3.13 0.39 1525.65c-25.21,8.51 -1141.29,10.98 -1178.32,0.68l0.01 -1523.21zm1640.4 630.96c53.24,-11.64 102.81,26.64 111.94,68.65 12.27,56.46 -23.51,103.78 -67.63,113.71 -127.4,28.67 -154.66,-158.23 -44.31,-182.36zm-2167.46 0c53.26,-11.7 102.74,26.78 111.89,68.71 12.28,56.3 -23.69,103.73 -67.59,113.64 -127.19,28.7 -154.24,-158.2 -44.3,-182.35zm624.61 -736.4c0.29,-46.39 53.56,-55 55.94,0 1.12,14.17 -3.13,24.83 -37.23,23.96 -14.22,-3.95 -15.99,-5 -18.71,-23.96zm-45.97 16.66c-56.24,23.64 -77.3,-51.81 -18.64,-55.57 35.75,7.47 29.83,31.82 18.64,55.57zm146.48 -57.64c30.72,-16.62 63.08,52.55 20.9,60.8 -43.35,11.93 -45.14,-38.61 -20.9,-60.8zm-268.39 453.11c0.99,-60.22 -0.37,-226.21 1.08,-297.64 0,-158.18 -23.07,-223.3 70.36,-224.18l1176.64 0.02c60.14,0.63 69.84,19.39 70.68,78.72 1.06,74.71 -5.48,420.44 2.31,443.08l441.05 0.11 -27.43 160.43 128.77 1.87c-17.41,47.47 -57.63,98.11 -61.87,147.73 146.28,132.5 -23.24,226.71 -24.06,228.08 -10.78,53.5 38.75,439.12 45.89,530.24l-502.34 0c-9.73,72.76 20.15,180.1 -30.24,231.22l-1262.25 -2.99c-35.6,-34.33 -27.93,-50.32 -27.61,-106.09 -2.78,-39.59 0.61,-87.25 0.84,-120.56l-474.82 -1.61 34.49 -518.95c-59.89,-28.43 -113.23,-32.09 -123.66,-115.36 -10.06,-80.3 35.61,-114.14 93.16,-144.89l-52.24 -128.07 129.55 -0.6 -36.56 -160.58 428.25 0z"/>
  <path class="fil1" d="M734.02 2737.17c12.4,-46.29 6.79,-116.2 6.79,-170 47.55,36.32 117.62,194.54 154.37,163.68 25.26,-21.21 16.31,-217.05 7.19,-266.25l-36.01 1.68c-14.01,41.11 -8.02,109.72 -8.53,159.67 -23.78,-17.07 -108.02,-139.76 -127.03,-150.49 -29.87,-16.88 -39.14,9.69 -39.14,38.29 0,147.99 -21.53,231.41 42.35,223.42z"/>
  <path class="fil1" d="M1607.09 2736.27c61.58,10.38 43.66,-58.76 43.66,-167.36 22.13,11.66 60.85,69.15 73.92,88.66 42.9,64.02 36.28,82.74 80.61,74.76 17.1,-38.65 21.03,-227 7.18,-267.36 -60.88,1.36 -40.81,17.95 -45.1,162.3l-73.95 -90.62c-24.13,-31.42 -37.17,-70.81 -88.61,-63.67 -5.86,73.52 -8.9,192.63 2.29,263.29z"/>
  <path class="fil1" d="M2011.16 2679.14c-77.51,36.45 -134.64,-36.01 -110.26,-101.74 10.1,-27.24 37.49,-48.5 73.9,-57.5 46.06,-11.38 46.69,21.67 83.53,-4.77 -7.22,-79.76 -113.88,-40.67 -158.26,-15.69 -101.23,56.96 -46.97,271.92 100.29,237.39 73.71,-17.29 62.77,-70.14 68.64,-106.66 4.01,-24.99 18.01,-11.65 -2.38,-39.61 -4.71,-4.71 -134.1,-39.15 -126.04,27.24 53.13,39.7 82.65,-28.28 70.58,61.35z"/>
  <path class="fil1" d="M1040.2 2522.58c94.79,-62.08 128.55,116.55 44.46,161.73 -90.84,48.81 -139.2,-99.68 -44.46,-161.73zm133.73 113.28c64.12,-184.88 -184.97,-239.85 -228.08,-60.37 -43.54,181.31 168.81,231.25 228.08,60.37z"/>
  <path class="fil1" d="M1409.08 2483.7c-26.83,-15.72 -73.92,-9.57 -112.84,-9.85 -47.57,-0.34 -74.27,-12.12 -91.96,24.63 7.43,8.24 -5.44,15.99 31.26,23.38 14.73,2.97 30.97,1.01 48.75,3.88 9.59,167.02 -30.77,214.67 48.74,210.21l3.18 -211.58 77.52 -7.35 -4.64 -33.33z"/>
  <path class="fil1" d="M1526.9 2529.02c35.36,-24.86 37.48,7.21 38.16,-49.2 -29.56,-12.35 -95.13,-11.36 -127.19,-1.97 -2.8,61.94 4.23,26.81 39.89,51.17l0 145.01c-24.25,16.36 -32.03,-0.96 -39.47,26.32 -11.22,41.16 113.42,50.84 129.77,4.21 -17.93,-32.79 -14.17,-11.55 -41.16,-30.53l0 -145.01z"/>
  <path class="fil2" d="M1298.45 729.87c-10.22,27.82 -10.73,22.82 1.75,48.28 57.82,10.7 93.36,5.7 156.34,5.49 27.8,0 50.21,-0.34 47.49,-32.49 -2.73,-32.25 -22.42,-27.47 -54.47,-27.69 -47.3,-0.32 -111.09,-5.97 -151.12,6.4z"/>
  <path class="fil2" d="M2296.06 3093.74c25.25,-19.11 15.69,-4.79 18.46,-45.84 1.19,-17.68 -1.78,-18.46 2.68,-35.74 54.71,11.09 -12.4,57.56 39.81,79.86 13.69,-14.75 10.62,-19.66 12.21,-44.03 0.8,-12.24 -1.24,-13.74 2.33,-25.87 4.37,-14.86 -2.14,-2.41 8.45,-11.42 16.51,13.01 8.05,2.32 10.24,37.3 3.16,50.4 10.19,39.13 20.28,44.47 13.03,-19.32 2.84,17.27 12.02,-28.86l-6.27 -74.79 -134.18 -9.48c-0.9,45.71 -9.2,84.75 13.96,114.4z"/>
  <path class="fil2" d="M2470.29 3056.92c-3.06,-26.79 -0.39,-36.24 20.31,-42.52 7.49,11.14 9.4,16.05 11.01,36.84l-31.31 5.68zm0 35.55c40.78,-10.44 69.41,-12.32 60.52,-67.11 -7.78,-47.93 -47.4,-43.69 -92.32,-41.77 -2.1,35.62 -6.79,119.95 1.79,147.88l8.42 12.62c20,-10.35 12.75,-3.57 19.87,-26.61 0.05,-0.16 1.39,-22.3 1.72,-25.01z"/>
  <path class="fil1" d="M2126.06 2474.4c-13.67,38.24 -18.34,149.64 4.9,182.43l24.91 -1.29c24.35,-33 19.32,-142.47 6.19,-183.25l-36 2.11z"/>
  <path class="fil1" d="M2245.92 2471.67c-27.1,23.6 -18.95,40.72 -18.66,87.8 0.21,33.72 -1.71,66.52 4.34,95.07 56.57,10.99 47.72,-29.9 46.98,-87.31 -0.6,-47.3 9.05,-91.48 -32.66,-95.55z"/>
  <path class="fil2" d="M978.79 3014.4c-3.6,5.07 -6.89,9.91 -14.71,12.57 -34.45,11.75 -7.25,2.48 -15.9,-3.56l30.61 -9.02zm-25.76 47.97c40.05,-22.04 71.75,-9.25 53.42,-68.59 -121.65,-64.07 -123.64,158.31 11.43,84.69 -18.65,-51.04 4.26,-16.64 -64.85,-16.1z"/>
  <path class="fil2" d="M2238.06 3014.4c-3.6,5.07 -6.89,9.91 -14.71,12.57 -34.45,11.75 -7.25,2.48 -15.9,-3.56l30.61 -9.02zm-25.76 47.97c40.05,-22.04 71.75,-9.25 53.42,-68.59 -121.65,-64.07 -123.64,158.31 11.43,84.69 -18.65,-51.04 4.26,-16.64 -64.85,-16.1z"/>
  <path class="fil2" d="M724.95 3066.31c-5.73,-5.65 -14.6,-7.06 -9.94,-29.08 4.12,-19.48 1.69,-14.37 17.58,-22.83 36.83,16.69 14.15,37.56 -7.63,51.9zm36.96 25c81.59,-139.76 -126.92,-151.15 -66.66,-0.58 27.56,6.97 38.34,6.47 66.66,0.58z"/>
  <path class="fil2" d="M1312.61 3066.31c-5.73,-5.65 -14.6,-7.06 -9.95,-29.08 4.12,-19.48 1.69,-14.37 17.58,-22.83 36.83,16.69 14.15,37.56 -7.63,51.9zm36.95 25c81.59,-139.76 -126.92,-151.15 -66.66,-0.58 27.56,6.97 38.34,6.47 66.66,0.58z"/>
  <path class="fil2" d="M128.59 2994.22c-50.02,-62.18 -4.61,-37.98 -45.79,-48.13 -24.58,32.65 7.09,41.83 23.88,70.48 13.38,22.82 2.64,16.58 6.07,39.65 9.28,62.45 -7.95,23.19 31.07,36.83 13.69,-112.47 -2.56,-35.37 40.08,-113.54 9.93,-18.21 9.17,-16.83 -1.88,-35.86 -45.61,17.4 -14.45,21.23 -53.42,50.56z"/>
  <path class="fil2" d="M1380.26 3093.06c43.23,-14.95 16.71,17.32 30.68,-29.18 0.03,-0.11 -0.69,-22.63 0.07,-27.75 2.53,-16.93 6.95,-21.04 25.69,-23.18 0,105.65 -3.83,73.86 22.76,80.35 14.93,-20.48 10.6,-80.57 6.58,-90.91 -12.97,-33.31 -52.64,-19.7 -87.6,-15.55l1.82 106.22z"/>
  <path class="fil2" d="M2651.35 3135.35c49.68,-8.07 98.65,-125.84 79.73,-153.71 -28.44,10.11 -25.05,26.72 -38.06,55.41 -7.95,-10.76 -13.7,-18.61 -23.24,-33.71 -16.89,-26.74 10.06,-16.67 -26.74,-23.31 -15.89,35.76 -6.4,15.98 -5.25,28.84 1.99,22.16 26.21,41.42 39.67,52.64 -12.76,34.32 -23.74,32.26 -26.11,73.85z"/>
  <path class="fil2" d="M246.09 3017.65c24.14,-12.6 24.56,27.44 2.61,43.35 -12.04,8.73 -19.64,1.74 -21.08,-13.1 -2.46,-25.23 7.89,-24.72 18.48,-30.25zm38.45 -26.4c-84.91,-24.87 -107.56,54.51 -76.14,91.28 34.77,40.68 106.91,-2.83 76.14,-91.28z"/>
  <path class="fil2" d="M401.45 3090.14c-2.51,-26.64 -5.2,-87.66 -21.01,-106.32 -48.64,33.23 9.03,45.58 -38.16,73.98 -30.49,-55.71 14.19,-52.02 -30.53,-73.25 -23.59,32.2 -10.77,71.39 0.04,100.88 52.96,4.81 62.39,-12.95 89.66,4.71z"/>
  <path class="fil1" d="M2333.25 1718.42c38.83,-34.89 89.89,1.56 57.99,57.86 -20.84,5.42 -37.5,9.75 -57.22,-2.63 -21.84,-22.08 -15.58,-42.65 -0.77,-55.23zm11.71 -29.5c-89.34,38.46 -24.58,143.83 44.61,109.67 60.14,-29.69 27.83,-140.85 -44.61,-109.67z"/>
  <path class="fil1" d="M117.06 1730.2c-39.14,-31.82 23.28,-92.64 60.43,-60.73 33,63.48 -42.9,76.03 -60.43,60.73zm6.81 -86.97c-83.96,42.5 -20.09,136.41 44.79,109.66 72.31,-29.81 23.8,-144.38 -44.79,-109.66z"/>
  <path class="fil2" d="M1756.52 2987.07c-18.51,-11.44 -50.77,-17.35 -66.7,4.97 -22.44,44.3 8.58,43.87 39.43,63.59 -24.63,18.29 -5.97,-0.38 -32.71,-3.5 -34.79,-4.06 -24.32,49.29 55.76,38.61 12.69,-44.85 13.43,-62.05 -41.04,-72.09l45.27 -31.56z"/>
  <path class="fil2" d="M2077.07 2987.07c-18.51,-11.44 -50.77,-17.35 -66.7,4.97 -22.44,44.3 8.58,43.87 39.43,63.59 -24.63,18.29 -5.97,-0.38 -32.71,-3.5 -34.79,-4.06 -24.33,49.29 55.76,38.61 12.69,-44.85 13.43,-62.05 -41.04,-72.09l45.27 -31.56z"/>
  <path class="fil2" d="M676.2 3017.42c-5.2,-30.56 1.87,-29.69 -23.47,-37.76 -21.48,-6.84 -59.92,5.23 -66.12,46.78 -3.56,23.83 2.76,42.09 7.66,58.99 38.53,10.3 55.51,13.42 74.43,-22.18 -34.36,-26.75 -7.73,8.08 -48.7,-7.63 -5.68,-24.68 -3.43,-25.83 5.96,-46.93l50.24 8.73z"/>
  <path class="fil2" d="M1060.12 3055.62c-5.68,-23.13 -0.82,-28.2 5.44,-46.28 35.41,3.26 23.4,13.73 48.03,0.49 -2.52,-27.93 2.14,-37.35 -67.29,-27.47 -58.05,88.96 36.02,154.29 64.91,80.89l-13.15 -5.38c-24.64,-5.2 -15.54,5.79 -37.94,-2.25z"/>
  <path class="fil1" d="M448.45 1764.37l-1.34 19.29c0.21,0.62 14.68,19.63 15.14,20.23 -15.97,20.93 -20.37,10.7 -18.12,43.26 32.94,4.55 15.81,1.26 43.16,-14.73 27.73,15.44 10.25,18.85 43.26,14.92 2.19,-28.93 -4.51,-26.94 -17.83,-42.87l16.08 -25.43c1.96,-13.15 0.72,-7.79 -2.47,-14.87 -23.82,-7.48 -20.8,1.19 -39.04,14.97 -17.45,-14.37 -15.23,-22.75 -38.84,-14.78z"/>
  <path class="fil2" d="M1210.57 2994.56c-26.34,-23.66 -13.33,-0.18 -24.54,-25.45 -14.04,-31.66 8.14,-19.47 -27.09,-29.63 -9.39,19.84 -3.21,23.16 -7.73,34.14l-14.37 16.82c-0.77,-1.56 -3.89,2.59 -5.66,4.11l15.02 20.1c8.05,12.98 3.81,-11.35 6,18.48 4.5,61.32 -16.87,20.39 14.33,59.33 26.27,-16.79 13.27,20.65 18.72,-75.02 26.35,-12.81 14.31,2.51 25.32,-22.9z"/>
  <path class="fil2" d="M2629.97 2994.56c-45.51,-33.68 -10.39,4.84 -32.82,-41.77 -7.44,-15.46 2.74,-2.6 -11.08,-12.53 -13.16,10.03 -2.96,-2.16 -10.97,12.69 -19.3,35.77 3.73,13.68 -26.7,39.27 15.28,56.9 18.35,-16.21 23.07,55.73 2.2,33.59 -9.21,32.74 19.8,42.8 20.36,-28.07 3.66,-25.19 9.54,-57.71 6.36,-35.19 11.02,-5.82 29.16,-38.48z"/>
  <path class="fil2" d="M1815.25 2940.26c-13.16,10.03 -2.96,-2.16 -10.98,12.69 -5.62,10.41 -1.79,8.92 -5.63,17 -8.82,18.59 -16.8,19.72 -16.82,19.66 -0.52,-1.22 -2.98,1.54 -4.25,2.61 15.28,56.9 18.35,-16.21 23.07,55.73 2.2,33.59 -9.22,32.74 19.8,42.8 20.36,-28.07 3.66,-25.19 9.54,-57.71 6.36,-35.19 11.02,-5.82 29.17,-38.48 -2.06,-1.53 -5.01,-2.79 -6.62,-3.93 -46.06,-32.37 -4.18,-26.6 -37.28,-50.37z"/>
  <path class="fil2" d="M1560.96 554.92c-21.79,8.32 -12.77,-4.68 -19.9,21.84 -1.97,7.32 -1.08,26.97 1.61,33.91 7.2,18.55 33.49,25.89 57.2,16.85 32.02,-12.21 30.11,-98.95 -38.9,-72.6z"/>
  <path class="fil2" d="M1193.65 554.34c-21.24,7.32 -13.34,-3.39 -19.88,21.64 -9.8,37.53 16.94,68.88 58.94,50.76 31.16,-13.44 28.48,-95.68 -39.06,-72.4z"/>
  <path class="fil2" d="M1593.88 2939.48c-36.79,9.79 -24.65,-21.08 -25.35,85.69 -0.3,45.19 -9.76,54.73 25.39,70.6 12.5,-15.19 4.72,3.5 9.54,-18.09 2.4,-10.75 -0.28,-120.51 -9.58,-138.2z"/>
  <path class="fil2" d="M815.42 2939.48c-36.79,9.79 -24.65,-21.08 -25.35,85.69 -0.3,45.19 -9.76,54.73 25.39,70.6 12.5,-15.19 4.72,3.5 9.54,-18.09 2.4,-10.75 -0.28,-120.51 -9.58,-138.2z"/>
  <path class="fil2" d="M861.29 2939.48c-11.77,22.38 -6.95,44.43 -7.04,77.99 -0.11,44 -4.98,54.01 10.93,77.18 42.24,-5.35 21.32,-13.79 21.17,-69.33 -0.3,-108.85 10.71,-76.32 -25.06,-85.84z"/>
  <path class="fil2" d="M446 3063.21c1.12,-11.05 -0.64,-17.61 1.56,-29.75 5.48,-30.22 0.01,-5.63 7.79,-21.2l43.56 3.31c-12.51,-55.48 -35.52,-33.84 -86.19,-26.89 -1.04,20.75 2.19,82.79 11.17,101.94 18.23,-0.78 19.82,-4.86 22.1,-27.41z"/>
  <path class="fil2" d="M2521.31 425.92c30.4,-3.5 24.31,-17.74 29.05,-54.94 2.99,-23.45 17.8,-71.33 -5.42,-81.4 -24.74,-10.72 -25.57,34.89 -28.18,56.23 -4.43,36.17 -15.19,57.16 4.56,80.11z"/>
  <path class="fil2" d="M284.57 410.69c4.92,-17.75 1.29,-161.93 -35.55,-127.66 -15.79,14.69 -4.73,47.59 -0.55,81.46 5.08,41.11 1.06,57.38 36.1,46.2z"/>
  <path class="fil2" d="M2797.78 589.7c-2.71,-34.24 -10.15,-28.34 -47.49,-32.35 -29.99,-3.22 -55.73,-8.59 -84.37,-1.46 -6.16,37.28 14.34,31.9 49.25,35.26 33.21,3.19 57.06,11.13 82.61,-1.45z"/>
  <path class="fil2" d="M2714.9 362.27c-37.78,-3.18 -42.46,17.81 -63.72,41.63 -8.34,9.34 -49.48,41.32 -34.03,57.22 22.12,22.75 46.27,-17.35 59.29,-31.97 19.78,-22.22 40.12,-31.06 38.46,-66.88z"/>
  <path class="fil2" d="M-0 567.62c13.73,31.64 29.39,19.7 67.99,15.62 37.64,-3.98 62.13,4.52 67.69,-30.88 -21.83,-15.99 -117.52,-12.28 -135.69,15.27z"/>
  <path class="fil2" d="M91.47 353.11c-3.96,3.4 -18.12,7.52 2.16,34.63 70.03,93.63 131.92,92.23 55.38,6.81 -11.35,-12.67 -40.77,-55.82 -57.54,-41.44z"/>
  <path class="fil2" d="M1245.77 2979.79c-23.16,5.53 -23.62,-19.74 -23.24,60.7 0.22,46.67 -8.74,44.12 22.65,52.81 13.03,-17.24 10.58,-18.12 10.27,-60.66 -0.17,-24.52 1.87,-36.99 -9.69,-52.85z"/>
  <path class="fil1" d="M298.7 1985.71c-25.12,-1.02 -4.42,2.4 -12.67,-13.82 10.46,-6.73 -13.92,-16.42 18.02,-6.05 7.67,2.49 13.16,-13.43 6.22,12.26 -3.88,14.34 5.47,8.3 -11.57,7.61zm-27.93 19.43l57.78 2.43c7.67,-26.14 7.77,-38.12 0.71,-61.21 -48.67,-16.8 -75.26,10.43 -58.49,58.78z"/>
  <path class="fil1" d="M2377.69 1986.17c2.64,-1.02 3.82,1.61 8.34,17.43 21.89,-1.42 14.17,-11.36 11.98,-31.85 16.05,-20.17 22.19,-10.54 17.62,-27.86 -12.78,-11.14 -19.63,6.13 -34.29,12.94 -5.86,2.72 -13,-36 -24.24,-25.29 -23.76,13.7 7.83,24.11 8.83,37.66 0.31,4.27 -8.14,8.99 -19.72,18.07 -6.43,5.05 -2.13,14.8 5.77,14.17 13.08,-1.05 -0.43,-5.18 25.69,-15.27z"/>
  <path class="fil2" d="M1647.34 2979.39c-25.22,17.99 -11.3,-14.3 -18.39,29.64l1.17 62.4c8.83,32.54 -2.57,14.63 17.22,21.98 9.31,-5.95 4.99,17.05 15,-29.59 3.89,-18.61 3.37,-60.62 -15,-84.43z"/>
  <path class="fil2" d="M1967.88 2980.47c-24.48,17.86 -24.9,92.75 0,111.56 24.57,-18.56 24.58,-92.38 0,-111.56z"/>
  <path class="fil1" d="M2121.24 2734.78c31.94,14.2 71.39,2.15 50.76,-34.98 -11.13,-20.02 -62.12,-31.3 -50.76,34.98z"/>
  <path class="fil1" d="M2275.67 2694.41c-35.42,-18.69 -54.44,-5.08 -45.55,38.34 37.78,20.97 69.04,6.61 45.55,-38.34z"/>
  <path class="fil2" d="M2776.87 3092.18c25.32,-18.69 12.78,7.44 18.7,-35.31l-39.71 -1.11c6.88,48.67 -8.22,20.54 21.01,36.43z"/>
  <path class="fil2" d="M1251.75 2956.63c4.55,-27.2 -1.17,-18.39 -8.89,-20.65 -21.84,10.03 -18.14,-11.04 -16.68,20.03 -0.13,9.25 -5.29,18.66 16.68,14.7 1.71,-2.44 4.8,-4.88 5.48,-7.06 0.59,-1.9 2.99,-4.93 3.42,-7.02z"/>
  <path class="fil2" d="M1639.81 2967.35c27.5,1.74 32.84,-14.7 2.92,-30.24 -10.28,8.25 -6.17,-2.86 -9.32,13.2 -5.56,13.92 -6.09,6.79 6.4,17.04z"/>
  <path class="fil2" d="M1959.74 2940.1c-1.2,-2.64 -4.65,1.27 -6.98,1.86 4.41,30.54 19.87,45.97 31.32,6.81l-24.33 -8.67z"/>
  <g id="_1753933874128">
   <line class="fil3" x1="1378.05" y1="0" x2="1378.05" y2= "0" />
  </g>
  <path class="fil1" d="M2630.62 1709.12l-1.34 19.29c0.21,0.62 14.68,19.63 15.14,20.23 -15.97,20.93 -20.37,10.7 -18.12,43.26 32.94,4.55 15.81,1.26 43.16,-14.73 27.73,15.44 10.25,18.85 43.26,14.92 2.19,-28.93 -4.51,-26.94 -17.83,-42.87l16.08 -25.43c1.96,-13.15 0.72,-7.79 -2.47,-14.87 -23.82,-7.48 -20.8,1.19 -39.04,14.97 -17.45,-14.37 -15.23,-22.75 -38.84,-14.78z"/>
  <path class="fil4" d="M798.41 1738.35l0.01 -1523.21 1177.91 -3.13 0.39 1525.65c-25.21,8.51 -1141.29,10.98 -1178.32,0.68zm1250.76 -148.06l502.34 0c-7.14,-91.13 -56.67,-476.74 -45.89,-530.24 0.82,-1.37 170.34,-95.58 24.06,-228.08 4.24,-49.63 44.47,-100.26 61.87,-147.73l-128.77 -1.87 27.43 -160.43 -441.05 -0.11c-7.8,-22.64 -1.25,-368.37 -2.31,-443.08 -0.84,-59.33 -10.54,-78.1 -70.68,-78.72l-1176.64 -0.02c-93.43,0.88 -70.36,66 -70.36,224.18 -1.45,71.43 -0.1,237.42 -1.08,297.64l-428.25 0 36.56 160.58 -129.55 0.6 52.24 128.07c-57.56,30.75 -103.22,64.59 -93.16,144.89 10.43,83.26 63.77,86.93 123.66,115.36l-34.49 518.95 474.82 1.61c-0.23,33.31 -3.63,80.97 -0.84,120.56 -0.32,55.77 -7.99,71.76 27.61,106.09l1262.25 2.99c50.38,-51.12 20.51,-158.46 30.24,-231.22zm433.97 -561.83c-127.4,28.67 -154.66,-158.23 -44.31,-182.36 53.24,-11.64 102.81,26.64 111.94,68.65 12.27,56.46 -23.51,103.78 -67.63,113.71zm-2211.78 -182.36c53.26,-11.7 102.74,26.78 111.89,68.71 12.28,56.3 -23.69,103.73 -67.59,113.64 -127.19,28.7 -154.24,-158.2 -44.3,-182.35zm643.32 -712.44c-14.22,-3.95 -15.99,-5 -18.71,-23.96 0.29,-46.39 53.56,-55 55.94,0 1.12,14.17 -3.13,24.83 -37.23,23.96zm-64.68 -7.3c-56.24,23.64 -77.3,-51.81 -18.64,-55.57 35.75,7.47 29.83,31.82 18.64,55.57zm167.39 3.15c-43.35,11.93 -45.14,-38.61 -20.9,-60.8 30.72,-16.62 63.08,52.55 20.9,60.8z"/>
  <path class="fil4" d="M798.41 1738.35l0.01 -1523.21 1177.91 -3.13 0.39 1525.65c-25.21,8.51 -1141.29,10.98 -1178.32,0.68zm1250.76 -148.06l502.34 0c-7.14,-91.13 -56.67,-476.74 -45.89,-530.24 0.82,-1.37 170.34,-95.58 24.06,-228.08 4.24,-49.63 44.47,-100.26 61.87,-147.73l-128.77 -1.87 27.43 -160.43 -441.05 -0.11c-7.8,-22.64 -1.25,-368.37 -2.31,-443.08 -0.84,-59.33 -10.54,-78.1 -70.68,-78.72l-1176.64 -0.02c-93.43,0.88 -70.36,66 -70.36,224.18 -1.45,71.43 -0.1,237.42 -1.08,297.64l-428.25 0 36.56 160.58 -129.55 0.6 52.24 128.07c-57.56,30.75 -103.22,64.59 -93.16,144.89 10.43,83.26 63.77,86.93 123.66,115.36l-34.49 518.95 474.82 1.61c-0.23,33.31 -3.63,80.97 -0.84,120.56 -0.32,55.77 -7.99,71.76 27.61,106.09l1262.25 2.99c50.38,-51.12 20.51,-158.46 30.24,-231.22zm433.97 -561.83c-127.4,28.67 -154.66,-158.23 -44.31,-182.36 53.24,-11.64 102.81,26.64 111.94,68.65 12.27,56.46 -23.51,103.78 -67.63,113.71zm-2211.78 -182.36c53.26,-11.7 102.74,26.78 111.89,68.71 12.28,56.3 -23.69,103.73 -67.59,113.64 -127.19,28.7 -154.24,-158.2 -44.3,-182.35zm643.32 -712.44c-14.22,-3.95 -15.99,-5 -18.71,-23.96 0.29,-46.39 53.56,-55 55.94,0 1.12,14.17 -3.13,24.83 -37.23,23.96zm-64.68 -7.3c-56.24,23.64 -77.3,-51.81 -18.64,-55.57 35.75,7.47 29.83,31.82 18.64,55.57zm167.39 3.15c-43.35,11.93 -45.14,-38.61 -20.9,-60.8 30.72,-16.62 63.08,52.55 20.9,60.8z"/>
  <path class="fil5" d="M798.42 215.14l1177.91 -3.13 0.39 1525.65c-25.21,8.51 -1141.29,10.98 -1178.32,0.68l0.01 -1523.21zm1250.75 1375.15l502.34 0c-7.14,-91.13 -56.67,-476.74 -45.89,-530.24 0.82,-1.37 170.34,-95.58 24.06,-228.08 4.24,-49.63 44.47,-100.26 61.87,-147.73l-128.77 -1.87 27.43 -160.43 -441.05 -0.11c-7.8,-22.64 -1.25,-368.37 -2.31,-443.08 -0.84,-59.33 -10.54,-78.1 -70.68,-78.72l-1176.64 -0.02c-93.43,0.88 -70.36,66 -70.36,224.18 -1.45,71.43 -0.1,237.42 -1.08,297.64l-428.25 0 36.56 160.58 -129.55 0.6 52.24 128.07c-57.56,30.75 -103.22,64.59 -93.16,144.89 10.43,83.26 63.77,86.93 123.66,115.36l-34.49 518.95 474.82 1.61c-0.23,33.31 -3.63,80.97 -0.84,120.56 -0.32,55.77 -7.99,71.76 27.61,106.09l1262.25 2.99c50.38,-51.12 20.51,-158.46 30.24,-231.22zm433.97 -561.83c-127.4,28.67 -154.66,-158.23 -44.31,-182.36 53.24,-11.64 102.81,26.64 111.94,68.65 12.27,56.46 -23.51,103.78 -67.63,113.71zm-2211.78 -182.36c53.26,-11.7 102.74,26.78 111.89,68.71 12.28,56.3 -23.69,103.73 -67.59,113.64 -127.19,28.7 -154.24,-158.2 -44.3,-182.35zm725.13 -777.38c30.72,-16.62 63.08,52.55 20.9,60.8 -43.35,11.93 -45.14,-38.61 -20.9,-60.8zm-44.57 40.98c1.12,14.17 -3.13,24.83 -37.23,23.96 -14.22,-3.95 -15.99,-5 -18.71,-23.96 0.29,-46.39 53.56,-55 55.94,0zm-120.55 -38.91c35.75,7.47 29.83,31.82 18.64,55.57 -56.24,23.64 -77.3,-51.81 -18.64,-55.57z"/>
  <path class="fil6" d="M798.42 215.14l1177.91 -3.13 0.39 1525.65c-25.21,8.51 -1141.29,10.98 -1178.32,0.68l0.01 -1523.21zm1250.75 1375.15l502.34 0c-7.14,-91.13 -56.67,-476.74 -45.89,-530.24 0.82,-1.37 170.34,-95.58 24.06,-228.08 4.24,-49.63 44.47,-100.26 61.87,-147.73l-128.77 -1.87 27.43 -160.43 -441.05 -0.11c-7.8,-22.64 -1.25,-368.37 -2.31,-443.08 -0.84,-59.33 -10.54,-78.1 -70.68,-78.72l-1176.64 -0.02c-93.43,0.88 -70.36,66 -70.36,224.18 -1.45,71.43 -0.1,237.42 -1.08,297.64l-428.25 0 36.56 160.58 -129.55 0.6 52.24 128.07c-57.56,30.75 -103.22,64.59 -93.16,144.89 10.43,83.26 63.77,86.93 123.66,115.36l-34.49 518.95 474.82 1.61c-0.23,33.31 -3.63,80.97 -0.84,120.56 -0.32,55.77 -7.99,71.76 27.61,106.09l1262.25 2.99c50.38,-51.12 20.51,-158.46 30.24,-231.22zm433.97 -561.83c-127.4,28.67 -154.66,-158.23 -44.31,-182.36 53.24,-11.64 102.81,26.64 111.94,68.65 12.27,56.46 -23.51,103.78 -67.63,113.71zm-2211.78 -182.36c53.26,-11.7 102.74,26.78 111.89,68.71 12.28,56.3 -23.69,103.73 -67.59,113.64 -127.19,28.7 -154.24,-158.2 -44.3,-182.35zm725.13 -777.38c30.72,-16.62 63.08,52.55 20.9,60.8 -43.35,11.93 -45.14,-38.61 -20.9,-60.8zm-44.57 40.98c1.12,14.17 -3.13,24.83 -37.23,23.96 -14.22,-3.95 -15.99,-5 -18.71,-23.96 0.29,-46.39 53.56,-55 55.94,0zm-120.55 -38.91c35.75,7.47 29.83,31.82 18.64,55.57 -56.24,23.64 -77.3,-51.81 -18.64,-55.57z"/>
  <rect class="fil3" x="728.09" y="521.82" width="70.31" height="1074.08"/>
  <path class="fil5" d="M798.41 521.82l-70.31 0 0 1070.05 1.82 0.01c-0.01,1.32 -0.02,2.66 -0.04,4.02l68.54 0 0 -1074.08z"/>
  <rect class="fil3" x="1976.69" y="521.82" width="72.48" height="1064.22"/>
  <polygon class="fil5" points="2049.17,521.82 1976.69,521.82 1976.69,1586.04 2049.17,1586.04 "/>
  <polygon class="fil7" points="2049.6,521.82 1976.69,521.82 1976.69,1592.4 2049.6,1592.4 "/>
  <path class="fil1" d="M798.41 1595.9l0 -1074.08 -70.31 0 0 1070.05 1.82 0.01c-0.01,1.32 -0.02,2.66 -0.04,4.02l68.54 0z"/>
  <path class="fil5" d="M728.09 1591.88l0 -1070.05 -428.25 0 36.56 160.58 -129.55 0.6 52.24 128.07c-57.56,30.75 -103.22,64.59 -93.16,144.89 10.43,83.26 63.77,86.93 123.66,115.36l-34.49 518.95 472.99 1.61zm-456.74 -745.78c53.26,-11.7 102.74,26.78 111.89,68.71 12.28,56.3 -23.69,103.73 -67.59,113.64 -127.19,28.7 -154.24,-158.2 -44.3,-182.35z"/>
  <path class="fil5" d="M2049.6 521.82l0 1068.47 501.91 0c-7.14,-91.13 -56.67,-476.74 -45.89,-530.24 0.82,-1.37 170.34,-95.58 24.06,-228.08 4.24,-49.63 44.47,-100.26 61.87,-147.73l-128.77 -1.87 27.43 -160.43 -440.62 -0.11zm433.54 506.64c-127.4,28.67 -154.66,-158.23 -44.31,-182.36 53.24,-11.64 102.81,26.64 111.94,68.65 12.27,56.46 -23.51,103.78 -67.63,113.71z"/>
  <path class="fil1" d="M1976.73 1737.67c-25.21,8.51 -1141.29,10.98 -1178.32,0.68l0 -142.45 -68.54 0c-0.45,33.05 -3.47,78.52 -0.8,116.54 -0.32,55.77 -7.99,71.76 27.61,106.09l1262.25 2.99c49.9,-50.63 21.08,-156.4 29.97,-229.11l-72.21 0 0.04 145.27z"/>
  <path class="fil1" d="M1976.69 1586.04l0 6.36 72.21 0 0.7 0 0 -2.11 0 -1068.47 -0.43 0 -72.48 0 0 1064.22zm-1178.27 -1370.9l1177.91 -3.13 0.35 1374.02 0 -1064.22 72.48 0c-7.8,-22.64 -1.25,-368.37 -2.31,-443.08 -0.84,-59.33 -10.54,-78.1 -70.68,-78.72l-1176.64 -0.02c-93.43,0.88 -70.36,66 -70.36,224.18 -1.45,71.43 -0.1,237.42 -1.08,297.64l70.32 0 0 -306.68zm198.07 -146.43c30.72,-16.62 63.08,52.55 20.9,60.8 -43.35,11.93 -45.14,-38.61 -20.9,-60.8zm-44.57 40.98c1.12,14.17 -3.13,24.83 -37.23,23.96 -14.22,-3.95 -15.99,-5 -18.71,-23.96 0.29,-46.39 53.56,-55 55.94,0zm-120.55 -38.91c35.75,7.47 29.83,31.82 18.64,55.57 -56.24,23.64 -77.3,-51.81 -18.64,-55.57z"/>
  <ellipse class="fil3" cx="1364.97" cy="2080.01" rx="690.02" ry="81.48"/>
  <path class="fil8" d="M2054.99 2080.01c0,-45 -308.93,-81.48 -690.02,-81.48 -381.09,0 -690.02,36.48 -690.02,81.48 0,45 308.93,81.48 690.02,81.48 381.09,0 690.02,-36.48 690.02,-81.48z"/>
  <path class="fil9" d="M2098.29 2080.01c0,-45 -318.62,-81.48 -711.66,-81.48 -393.04,0 -711.67,36.48 -711.67,81.48 0,45 318.62,81.48 711.67,81.48 393.04,0 711.66,-36.48 711.66,-81.48z"/>
  <path class="fil10" d="M798.41 1738.35c37.03,10.29 1153.1,7.83 1178.32,-0.68l-0.04 -145.27 0 -6.36 -0.35 -1374.02 -1177.91 3.13 -0 306.68 -0.01 1074.08 -0 142.45zm434.31 -1111.62c-42,18.12 -68.74,-13.23 -58.94,-50.76 6.54,-25.03 -1.36,-14.32 19.88,-21.64 67.54,-23.28 70.22,58.96 39.06,72.4zm223.83 156.91c-62.98,0.21 -98.52,5.21 -156.34,-5.49 -12.48,-25.46 -11.97,-20.47 -1.75,-48.28 40.02,-12.37 103.82,-6.72 151.12,-6.4 32.05,0.22 51.73,-4.56 54.47,27.69 2.72,32.15 -19.69,32.49 -47.49,32.49zm84.51 -206.88c7.14,-26.52 -1.89,-13.52 19.9,-21.84 69.01,-26.35 70.92,60.39 38.9,72.6 -23.7,9.04 -50,1.7 -57.2,-16.85 -2.69,-6.94 -3.58,-26.6 -1.61,-33.91z"/>
 </g>
</svg>
