<svg aria-hidden="true" style="position:absolute;width:0;height:0;overflow:hidden" xmlns="http://www.w3.org/2000/svg">
  <defs>
    <symbol id="icon-arrow-left" viewBox="0 0 32 32">
      <path stroke-linejoin="round" stroke-linecap="round" stroke-width="2.667"
        d="M25.333 16H6.666M16 25.334l-9.333-9.333L16 6.668" />
    </symbol>
    <symbol id="icon-arrow-right" viewBox="0 0 32 32">
      <path stroke-linejoin="round" stroke-linecap="round" stroke-width="2.667"
        d="M6.667 16h18.667M16 25.334l9.333-9.333L16 6.668" />
    </symbol>
    <symbol id="icon-close" viewBox="0 0 32 32">
      <path stroke-width="2.133"  d="m8.533 8.533 14.933 14.933M8.533 23.467 23.466 8.534" />
    </symbol>
    <symbol id="icon-film" viewBox="0 0 32 32">
      <path fill="transparent" stroke="#818181" style="stroke:var(--color1, #818181)" stroke-linejoin="round"
        stroke-linecap="round" stroke-width="2.667"
        d="M26.427 2.667H5.574a2.907 2.907 0 0 0-2.907 2.907v20.853a2.907 2.907 0 0 0 2.907 2.907h20.853a2.907 2.907 0 0 0 2.907-2.907V5.574a2.907 2.907 0 0 0-2.907-2.907zM9.333 2.667v26.667M22.667 2.667v26.667M2.667 16h26.667M2.667 9.333h6.667M2.667 22.667h6.667M22.667 22.667h6.667M22.667 9.333h6.667" />
    </symbol>
    <symbol id="icon-heart" viewBox="0 0 32 32">
      <path fill="#ff6b08" style="fill:var(--color2, #ff6b08)"
        d="m16 30.583-2.24-2.24C5.44 20.983 0 16.023 0 9.943c0-4.96 3.84-8.8 8.8-8.8 2.72 0 5.44 1.28 7.2 3.36 1.76-2.08 4.48-3.36 7.2-3.36 4.96 0 8.8 3.84 8.8 8.8 0 6.08-5.44 11.04-13.76 18.4L16 30.583z" />
    </symbol>
    <symbol id="icon-search-2" viewBox="0 0 30 30">
      <path fill="none" stroke="#fff" style="stroke:var(--color3, #fff)" stroke-linejoin="round" stroke-linecap="round"
        stroke-width="2.667"
        d="M14.667 25.333c5.891 0 10.667-4.776 10.667-10.667S20.558 3.999 14.667 3.999 4 8.775 4 14.666s4.776 10.667 10.667 10.667zM28 28.001l-5.8-5.8" />
    </symbol>
    <symbol id="icon-instagram" viewBox="0 0 32 32">
      <path
        d="M16 2.881c4.275 0 4.781 0.019 6.462 0.094 1.563 0.069 2.406 0.331 2.969 0.55 0.744 0.288 1.281 0.638 1.837 1.194 0.563 0.563 0.906 1.094 1.2 1.838 0.219 0.563 0.481 1.412 0.55 2.969 0.075 1.688 0.094 2.194 0.094 6.463s-0.019 4.781-0.094 6.463c-0.069 1.563-0.331 2.406-0.55 2.969-0.288 0.744-0.637 1.281-1.194 1.837-0.563 0.563-1.094 0.906-1.837 1.2-0.563 0.219-1.413 0.481-2.969 0.55-1.688 0.075-2.194 0.094-6.463 0.094s-4.781-0.019-6.463-0.094c-1.563-0.069-2.406-0.331-2.969-0.55-0.744-0.288-1.281-0.637-1.838-1.194-0.563-0.563-0.906-1.094-1.2-1.837-0.219-0.563-0.481-1.413-0.55-2.969-0.075-1.688-0.094-2.194-0.094-6.463s0.019-4.781 0.094-6.463c0.069-1.563 0.331-2.406 0.55-2.969 0.288-0.744 0.638-1.281 1.194-1.838 0.563-0.563 1.094-0.906 1.838-1.2 0.563-0.219 1.412-0.481 2.969-0.55 1.681-0.075 2.188-0.094 6.463-0.094zM16 0c-4.344 0-4.887 0.019-6.594 0.094-1.7 0.075-2.869 0.35-3.881 0.744-1.056 0.412-1.95 0.956-2.837 1.85-0.894 0.888-1.438 1.781-1.85 2.831-0.394 1.019-0.669 2.181-0.744 3.881-0.075 1.713-0.094 2.256-0.094 6.6s0.019 4.887 0.094 6.594c0.075 1.7 0.35 2.869 0.744 3.881 0.413 1.056 0.956 1.95 1.85 2.837 0.887 0.887 1.781 1.438 2.831 1.844 1.019 0.394 2.181 0.669 3.881 0.744 1.706 0.075 2.25 0.094 6.594 0.094s4.888-0.019 6.594-0.094c1.7-0.075 2.869-0.35 3.881-0.744 1.050-0.406 1.944-0.956 2.831-1.844s1.438-1.781 1.844-2.831c0.394-1.019 0.669-2.181 0.744-3.881 0.075-1.706 0.094-2.25 0.094-6.594s-0.019-4.887-0.094-6.594c-0.075-1.7-0.35-2.869-0.744-3.881-0.394-1.063-0.938-1.956-1.831-2.844-0.887-0.887-1.781-1.438-2.831-1.844-1.019-0.394-2.181-0.669-3.881-0.744-1.712-0.081-2.256-0.1-6.6-0.1v0z">
      </path>
      <path
        d="M16 7.781c-4.537 0-8.219 3.681-8.219 8.219s3.681 8.219 8.219 8.219 8.219-3.681 8.219-8.219c0-4.537-3.681-8.219-8.219-8.219zM16 21.331c-2.944 0-5.331-2.387-5.331-5.331s2.387-5.331 5.331-5.331c2.944 0 5.331 2.387 5.331 5.331s-2.387 5.331-5.331 5.331z">
      </path>
      <path
        d="M26.462 7.456c0 1.060-0.859 1.919-1.919 1.919s-1.919-0.859-1.919-1.919c0-1.060 0.859-1.919 1.919-1.919s1.919 0.859 1.919 1.919z">
      </path>
    </symbol>
    <symbol id="icon-twitter" viewBox="0 0 32 32">
      <path
        d="M32 7.075c-1.175 0.525-2.444 0.875-3.769 1.031 1.356-0.813 2.394-2.1 2.887-3.631-1.269 0.75-2.675 1.3-4.169 1.594-1.2-1.275-2.906-2.069-4.794-2.069-3.625 0-6.563 2.938-6.563 6.563 0 0.512 0.056 1.012 0.169 1.494-5.456-0.275-10.294-2.888-13.531-6.862-0.563 0.969-0.887 2.1-0.887 3.3 0 2.275 1.156 4.287 2.919 5.463-1.075-0.031-2.087-0.331-2.975-0.819 0 0.025 0 0.056 0 0.081 0 3.181 2.263 5.838 5.269 6.437-0.55 0.15-1.131 0.231-1.731 0.231-0.425 0-0.831-0.044-1.237-0.119 0.838 2.606 3.263 4.506 6.131 4.563-2.25 1.762-5.075 2.813-8.156 2.813-0.531 0-1.050-0.031-1.569-0.094 2.913 1.869 6.362 2.95 10.069 2.95 12.075 0 18.681-10.006 18.681-18.681 0-0.287-0.006-0.569-0.019-0.85 1.281-0.919 2.394-2.075 3.275-3.394z">
      </path>
    </symbol>
    <symbol id="icon-youtube" viewBox="0 0 32 32">
      <path
        d="M31.681 9.6c0 0-0.313-2.206-1.275-3.175-1.219-1.275-2.581-1.281-3.206-1.356-4.475-0.325-11.194-0.325-11.194-0.325h-0.012c0 0-6.719 0-11.194 0.325-0.625 0.075-1.987 0.081-3.206 1.356-0.963 0.969-1.269 3.175-1.269 3.175s-0.319 2.588-0.319 5.181v2.425c0 2.587 0.319 5.181 0.319 5.181s0.313 2.206 1.269 3.175c1.219 1.275 2.819 1.231 3.531 1.369 2.563 0.244 10.881 0.319 10.881 0.319s6.725-0.012 11.2-0.331c0.625-0.075 1.988-0.081 3.206-1.356 0.962-0.969 1.275-3.175 1.275-3.175s0.319-2.587 0.319-5.181v-2.425c-0.006-2.588-0.325-5.181-0.325-5.181zM12.694 20.15v-8.994l8.644 4.513-8.644 4.481z">
      </path>
    </symbol>
    <symbol id="icon-youtube2" viewBox="0 0 80 32">
      <path
        d="M10.75 5.294c0.007-0.027 0.011-0.046 0.012-0.056l0.033-0.236-1.48-0.008c-1.337-0.008-1.746 0-1.783 0.034-0.018 0.016-0.479 1.77-1.302 4.946-0.392 1.515-0.723 2.725-0.734 2.689s-0.481-1.766-1.044-3.843c-0.563-2.078-1.034-3.789-1.048-3.803-0.019-0.019-1.812-0.028-3.263-0.016-0.21 0.002-0.327-0.41 1.876 6.598 0.305 0.97 0.762 2.344 1.015 3.052 0.292 0.817 0.5 1.448 0.642 1.974 0.251 1.002 0.26 1.63 0.205 2.363-0.063 0.847-0.073 6.826-0.011 6.926 0.047 0.077 2.851 0.112 3.116 0.040 0.042-0.012 0.071-0.053 0.090-0.279 0.066-0.194 0.071-0.968 0.071-4.18v-4.103l0.179-0.566c0.117-0.37 0.413-1.344 0.656-2.163s0.538-1.801 0.654-2.18c1.057-3.447 2.067-6.838 2.094-7.032l0.022-0.158z">
      </path>
      <path
        d="M26.441 10.27l-0.001 0.214-0.033 0-0.019 5.906-0.018 5.726-0.458 0.467c-0.513 0.522-0.925 0.722-1.297 0.629-0.405-0.102-0.395 0.056-0.429-6.712l-0.031-6.23h-2.947v0.214h-0.034v6.759c0 7.242-0 7.237 0.367 7.965 0.293 0.579 0.719 0.861 1.45 0.958h0c0.962 0.128 2-0.308 2.962-1.244l0.418-0.407v0.701c0 0.606 0.017 0.706 0.127 0.737 0.18 0.050 2.412 0.053 2.653 0.004l0.2-0.041v-0.207l0.034-0.007v-15.472l-2.944 0.039z">
      </path>
      <path
        d="M18.965 13.323c-0.279-1.198-0.802-2.004-1.664-2.561-1.353-0.875-2.897-0.967-4.331-0.259-1.045 0.516-1.717 1.372-2.065 2.628-0.041 0.15-0.072 0.275-0.095 0.463-0.088 0.443-0.099 1.105-0.122 4.186-0.035 4.748 0.019 5.313 0.614 6.391 0.583 1.058 1.794 1.833 3.112 1.993 0.397 0.048 1.201-0.027 1.663-0.155 1.051-0.291 2.058-1.122 2.504-2.065 0.192-0.407 0.309-0.691 0.379-1.208 0.13-0.707 0.14-1.849 0.14-4.762-0-3.715-0.012-4.121-0.136-4.651zM15.604 23c-0.247 0.188-0.679 0.27-1.031 0.195-0.271-0.058-0.636-0.482-0.748-0.869-0.14-0.482-0.151-7.187-0.030-8.502 0.199-0.658 0.756-1.002 1.364-0.838 0.474 0.128 0.716 0.424 0.854 1.046 0.103 0.461 0.115 1.035 0.093 4.414-0.014 2.241-0.022 3.336-0.096 3.924-0.074 0.371-0.197 0.47-0.407 0.63z">
      </path>
      <path
        d="M71.887 16.692h1.424l-0.023-1.29c-0.022-1.183-0.039-1.319-0.198-1.64-0.249-0.507-0.617-0.731-1.201-0.731-0.701 0-1.146 0.339-1.356 1.036-0.089 0.296-0.183 2.334-0.116 2.51 0.038 0.098 0.241 0.116 1.469 0.116z">
      </path>
      <path
        d="M62.369 13.757c-0.19-0.383-0.543-0.571-0.954-0.556-0.319 0.011-0.674 0.146-1.015 0.407l-0.254 0.193v9.269l0.254 0.193c0.576 0.439 1.209 0.532 1.644 0.241 0.172-0.115 0.285-0.274 0.372-0.527 0.114-0.329 0.124-0.75 0.109-4.649-0.015-4.064-0.024-4.303-0.157-4.57z">
      </path>
      <path
        d="M80.027 9.582c-0.284-3.401-0.509-4.505-1.211-5.923-0.929-1.878-2.272-2.868-4.184-3.086-1.478-0.168-7.041-0.405-12.189-0.52-8.912-0.198-23.564 0.183-25.436 0.662-0.865 0.221-1.513 0.597-2.188 1.269-1.183 1.177-1.887 2.865-2.17 5.2-0.647 5.331-0.66 11.773-0.037 17.297 0.268 2.376 0.82 3.92 1.857 5.192 0.647 0.794 1.761 1.469 2.758 1.67 0.7 0.141 4.201 0.337 9.3 0.521 0.76 0.027 2.771 0.074 4.47 0.105 3.541 0.063 10.051 0.026 13.772-0.079 2.504-0.070 7.069-0.255 7.922-0.321 0.24-0.019 0.796-0.054 1.236-0.079 1.477-0.083 2.417-0.393 3.3-1.086 1.142-0.897 2.027-2.556 2.4-4.501 0.354-1.84 0.59-5.118 0.638-8.839 0.040-3.109-0.013-4.787-0.238-7.482zM44.54 8.35l-1.656 0.020-0.073 17.661-1.435 0.018c-1.11 0.015-1.447-0.001-1.474-0.073-0.019-0.051-0.042-4.032-0.052-8.849l-0.018-8.758-3.234-0.041v-2.76l9.557 0.039 0.041 2.721-1.656 0.020zM54.694 18.472v7.595h-2.616v-0.799c0-0.601-0.023-0.799-0.093-0.799-0.051 0-0.288 0.198-0.527 0.441-0.517 0.526-1.13 0.949-1.653 1.145-1.083 0.405-2.112 0.169-2.551-0.586-0.401-0.691-0.409-0.845-0.409-8.010v-6.58h2.614l0.020 6.196c0.019 6.088 0.022 6.2 0.168 6.448 0.193 0.329 0.488 0.417 0.956 0.288 0.276-0.076 0.464-0.21 0.911-0.654l0.563-0.561v-11.717h2.616v7.595zM64.899 24.982c-0.23 0.513-0.744 1.016-1.165 1.14-1.099 0.324-1.98 0.060-2.998-0.897-0.316-0.297-0.61-0.538-0.654-0.538-0.053 0-0.082 0.233-0.082 0.69v0.69h-2.616v-20.495h2.616v3.343c0 1.839 0.025 3.343 0.054 3.343s0.306-0.244 0.613-0.541c0.707-0.683 1.298-0.981 2.049-1.038 1.338-0.101 2.135 0.587 2.501 2.16 0.114 0.491 0.125 1.051 0.125 5.596-0 5.537-0.001 5.56-0.443 6.546zM75.968 21.943c-0.023 0.57-0.092 1.223-0.154 1.454-0.364 1.349-1.332 2.304-2.732 2.696-1.885 0.527-3.96-0.337-4.788-1.994-0.465-0.93-0.481-1.116-0.481-5.662 0-3.707 0.013-4.162 0.132-4.667 0.336-1.431 1.168-2.357 2.578-2.871 0.408-0.149 0.835-0.225 1.261-0.234 1.521-0.031 3.031 0.787 3.663 2.119 0.427 0.899 0.48 1.283 0.522 3.816l0.039 2.271-5.578 0.039-0.020 1.526c-0.029 2.153 0.116 2.815 0.697 3.207 0.489 0.329 1.24 0.305 1.649-0.055 0.383-0.337 0.491-0.698 0.529-1.753l0.034-0.927h2.694l-0.043 1.036z">
      </path>
    </symbol>
    <symbol id="icon-appleinc" viewBox="0 0 32 32">
      <path
        d="M24.734 17.003c-0.040-4.053 3.305-5.996 3.454-6.093-1.88-2.751-4.808-3.127-5.851-3.171-2.492-0.252-4.862 1.467-6.127 1.467-1.261 0-3.213-1.43-5.28-1.392-2.716 0.040-5.221 1.579-6.619 4.012-2.822 4.897-0.723 12.151 2.028 16.123 1.344 1.944 2.947 4.127 5.051 4.049 2.026-0.081 2.793-1.311 5.242-1.311s3.138 1.311 5.283 1.271c2.18-0.041 3.562-1.981 4.897-3.931 1.543-2.255 2.179-4.439 2.216-4.551-0.048-0.022-4.252-1.632-4.294-6.473zM20.705 5.11c1.117-1.355 1.871-3.235 1.665-5.11-1.609 0.066-3.559 1.072-4.713 2.423-1.036 1.199-1.942 3.113-1.699 4.951 1.796 0.14 3.629-0.913 4.747-2.264z">
      </path>
    </symbol>
    <symbol id="icon-facebook" viewBox="0 0 32 32">
      <path
        d="M21.329 5.313h2.921v-5.088c-0.504-0.069-2.237-0.225-4.256-0.225-4.212 0-7.097 2.649-7.097 7.519v4.481h-4.648v5.688h4.648v14.312h5.699v-14.311h4.46l0.708-5.688h-5.169v-3.919c0.001-1.644 0.444-2.769 2.735-2.769z">
      </path>
    </symbol>
    <symbol id="icon-google-play" viewBox="0 0 107 32">
      <path
        d="M102.716 31.605h-98.766c-2.212 0-3.95-1.739-3.95-3.952v-23.703c0-2.212 1.739-3.95 3.95-3.95h98.766c2.212 0 3.95 1.739 3.95 3.95v23.704c0 2.133-1.739 3.951-3.95 3.951z">
      </path>
      <path fill="#a6a6a6"
        d="M102.716 0.632c1.817 0 3.318 1.501 3.318 3.318v23.704c0 1.818-1.501 3.318-3.318 3.318h-98.766c-1.817 0-3.318-1.5-3.318-3.318v-23.704c0-1.817 1.501-3.318 3.318-3.318h98.766zM102.716 0h-98.766c-2.212 0-3.95 1.739-3.95 3.95v23.704c0 2.212 1.739 3.951 3.95 3.951h98.766c2.212 0 3.95-1.739 3.95-3.951v-23.704c0-2.133-1.739-3.95-3.95-3.95z">
      </path>
      <path fill="#fff"
        d="M37.452 8.059c0 0.632-0.158 1.186-0.553 1.58-0.475 0.474-1.028 0.711-1.739 0.711s-1.264-0.237-1.738-0.711c-0.475-0.474-0.711-1.027-0.711-1.738s0.236-1.265 0.711-1.739c0.474-0.474 1.026-0.711 1.737-0.711 0.316 0 0.632 0.079 0.948 0.237s0.553 0.316 0.711 0.553l-0.396 0.395c-0.316-0.395-0.711-0.553-1.264-0.553-0.474 0-0.948 0.158-1.264 0.553-0.396 0.316-0.553 0.791-0.553 1.343 0 0.554 0.157 1.028 0.553 1.344s0.79 0.553 1.264 0.553c0.553 0 0.948-0.158 1.343-0.553 0.237-0.237 0.396-0.554 0.396-0.948h-1.739v-0.553h2.293v0.236zM41.086 6.084h-2.133v1.501h1.975v0.553h-1.975v1.501h2.133v0.632h-2.765v-4.74h2.765zM43.693 10.271h-0.632v-4.188h-1.343v-0.553h3.318v0.553h-1.343zM47.328 10.271v-4.74h0.632v4.74zM50.646 10.271h-0.632v-4.188h-1.343v-0.553h3.24v0.553h-1.344v4.188zM58.153 9.639c-0.475 0.474-1.028 0.711-1.739 0.711s-1.264-0.237-1.738-0.711c-0.475-0.474-0.711-1.027-0.711-1.738s0.236-1.265 0.711-1.739c0.474-0.474 1.027-0.711 1.738-0.711s1.264 0.237 1.739 0.711c0.474 0.474 0.711 1.028 0.711 1.739s-0.237 1.264-0.711 1.738zM55.15 9.244c0.316 0.316 0.79 0.553 1.264 0.553s0.948-0.158 1.264-0.553c0.316-0.316 0.554-0.791 0.554-1.343 0-0.554-0.158-1.028-0.554-1.344-0.316-0.316-0.789-0.553-1.264-0.553s-0.948 0.158-1.264 0.553c-0.316 0.316-0.553 0.791-0.553 1.344s0.158 1.027 0.553 1.342zM59.733 10.271v-4.74h0.711l2.291 3.714v-3.714h0.632v4.74h-0.632l-2.449-3.871v3.871z">
      </path>
      <path fill="#fff"
        d="M53.807 17.225c-1.896 0-3.397 1.422-3.397 3.397 0 1.896 1.501 3.397 3.397 3.397s3.398-1.422 3.398-3.397c0-2.054-1.502-3.397-3.398-3.397zM53.807 22.597c-1.027 0-1.896-0.869-1.896-2.053 0-1.186 0.869-2.055 1.896-2.055s1.897 0.79 1.897 2.054c0 1.185-0.869 2.054-1.897 2.054zM46.46 17.225c-1.897 0-3.398 1.422-3.398 3.397 0 1.896 1.502 3.397 3.398 3.397s3.397-1.422 3.397-3.397c0-2.054-1.501-3.397-3.397-3.397zM46.46 22.597c-1.028 0-1.897-0.869-1.897-2.053 0-1.186 0.869-2.055 1.897-2.055s1.896 0.79 1.896 2.054c0 1.185-0.869 2.054-1.896 2.054zM37.689 18.252v1.422h3.397c-0.079 0.791-0.395 1.422-0.79 1.818-0.474 0.474-1.264 1.027-2.607 1.027-2.133 0-3.714-1.659-3.714-3.792s1.66-3.793 3.714-3.793c1.106 0 1.975 0.474 2.607 1.028l1.028-1.028c-0.869-0.79-1.975-1.422-3.556-1.422-2.844 0-5.294 2.371-5.294 5.215s2.45 5.214 5.294 5.214c1.58 0 2.686-0.474 3.635-1.501 0.947-0.948 1.263-2.291 1.263-3.318 0-0.316 0-0.632-0.079-0.869h-4.899zM73.561 19.358c-0.316-0.791-1.107-2.133-2.844-2.133s-3.161 1.342-3.161 3.397c0 1.896 1.422 3.397 3.318 3.397 1.502 0 2.45-0.948 2.765-1.501l-1.106-0.79c-0.395 0.554-0.869 0.948-1.66 0.948s-1.264-0.316-1.659-1.027l4.503-1.897-0.157-0.395zM68.978 20.464c0-1.264 1.028-1.975 1.739-1.975 0.553 0 1.106 0.316 1.264 0.711l-3.003 1.264zM65.264 23.704h1.502v-9.876h-1.502v9.876zM62.894 17.935c-0.396-0.395-1.028-0.789-1.818-0.789-1.66 0-3.239 1.501-3.239 3.397s1.501 3.318 3.239 3.318c0.79 0 1.422-0.395 1.739-0.789h0.079v0.474c0 1.264-0.711 1.975-1.818 1.975-0.869 0-1.501-0.632-1.66-1.185l-1.264 0.553c0.396 0.869 1.343 1.975 3.003 1.975 1.739 0 3.161-1.027 3.161-3.476v-6.005h-1.422v0.553zM61.156 22.598c-1.028 0-1.896-0.869-1.896-2.053 0-1.186 0.868-2.055 1.896-2.055s1.817 0.869 1.817 2.054-0.789 2.054-1.817 2.054zM80.435 13.828h-3.556v9.876h1.501v-3.713h2.053c1.66 0 3.24-1.185 3.24-3.082s-1.58-3.081-3.239-3.081zM80.514 18.569h-2.133v-3.397h2.133c1.106 0 1.738 0.948 1.738 1.659-0.079 0.869-0.711 1.739-1.738 1.739zM89.6 17.147c-1.106 0-2.212 0.474-2.607 1.501l1.342 0.553c0.316-0.553 0.791-0.711 1.344-0.711 0.79 0 1.501 0.474 1.58 1.264v0.080c-0.237-0.159-0.869-0.396-1.502-0.396-1.422 0-2.844 0.79-2.844 2.212 0 1.342 1.186 2.212 2.45 2.212 1.028 0 1.502-0.474 1.897-0.948h0.079v0.79h1.422v-3.794c-0.158-1.739-1.502-2.765-3.161-2.765zM89.442 22.598c-0.474 0-1.185-0.236-1.185-0.869 0-0.789 0.869-1.027 1.58-1.027 0.631 0 0.948 0.158 1.342 0.316-0.157 0.948-0.948 1.58-1.738 1.58zM97.739 17.384l-1.66 4.267h-0.079l-1.739-4.267h-1.58l2.607 6.004-1.501 3.318h1.501l4.029-9.323h-1.58zM84.464 23.704h1.502v-9.876h-1.502v9.876z">
      </path>
      <path fill="#fff"
        d="M8.217 5.925c-0.236 0.237-0.395 0.633-0.395 1.108v17.461c0 0.475 0.158 0.869 0.395 1.107l0.080 0.079 9.797-9.798v-0.158l-9.877-9.797z">
      </path>
      <path fill="#fff"
        d="M21.333 19.2l-3.239-3.24v-0.237l3.239-3.238 0.079 0.080 3.871 2.212c1.107 0.632 1.107 1.66 0 2.292l-3.95 2.132z">
      </path>
      <path fill="#fff" d="M21.412 19.121l-3.318-3.318-9.877 9.876c0.396 0.396 0.948 0.396 1.66 0.080l11.536-6.637z">
      </path>
      <path fill="#fff" d="M21.412 12.484l-11.537-6.558c-0.71-0.395-1.262-0.315-1.659 0.080l9.877 9.797 3.318-3.319z">
      </path>
      <path fill="#000" opacity="0.2"
        d="M21.333 19.042l-11.457 6.479c-0.631 0.395-1.185 0.316-1.58 0l-0.078 0.079 0.078 0.079c0.396 0.316 0.948 0.395 1.58 0l11.458-6.637z">
      </path>
      <path fill="#000" opacity="0.12"
        d="M8.218 25.521c-0.237-0.238-0.316-0.632-0.316-1.107v0.080c0 0.474 0.158 0.868 0.395 1.106v-0.080h-0.078z">
      </path>
      <path fill="#fff" opacity="0.12"
        d="M25.284 16.829l-3.95 2.212 0.079 0.079 3.871-2.212c0.554-0.316 0.791-0.711 0.791-1.106 0 0.395-0.316 0.711-0.791 1.027z">
      </path>
      <path fill="#fff" opacity="0.25"
        d="M9.876 6.004l15.407 8.771c0.475 0.316 0.791 0.632 0.791 1.028 0-0.396-0.237-0.791-0.791-1.107l-15.407-8.771c-1.106-0.631-1.974-0.078-1.974 1.186v0.079c-0.001-1.265 0.868-1.818 1.973-1.186z">
      </path>
    </symbol>
    <symbol id="icon-app-store" viewBox="0 0 96 32">
      <path fill="#a6a6a6"
        d="M88.108 0h-80.48c-0.293 0-0.583 0-0.876 0.002-0.245 0.002-0.488 0.006-0.735 0.010-0.571 0.007-1.125 0.058-1.666 0.15l0.063-0.009c-0.57 0.099-1.081 0.273-1.551 0.516l0.030-0.014c-0.498 0.258-0.924 0.572-1.295 0.943v0c-0.373 0.37-0.687 0.798-0.929 1.269l-0.013 0.028c-0.229 0.441-0.403 0.952-0.496 1.491l-0.004 0.031c-0.085 0.477-0.136 1.031-0.143 1.595l-0 0.007c-0.007 0.245-0.008 0.491-0.012 0.737v18.491c0.004 0.248 0.005 0.489 0.012 0.738 0.007 0.571 0.059 1.124 0.152 1.663l-0.009-0.062c0.097 0.571 0.271 1.082 0.514 1.553l-0.014-0.029c0.255 0.497 0.57 0.923 0.942 1.291l0.001 0.001c0.369 0.373 0.797 0.687 1.267 0.93l0.028 0.013c0.44 0.229 0.95 0.405 1.488 0.5l0.032 0.005c0.477 0.083 1.031 0.134 1.596 0.141l0.008 0c0.247 0.005 0.49 0.009 0.735 0.009 0.293 0.002 0.582 0.002 0.876 0.002h80.48c0.288 0 0.58 0 0.867-0.002 0.244 0 0.494-0.003 0.738-0.009 0.571-0.007 1.124-0.058 1.663-0.15l-0.063 0.009c0.573-0.101 1.085-0.276 1.557-0.519l-0.031 0.014c0.498-0.256 0.925-0.571 1.293-0.943l0-0c0.372-0.369 0.687-0.795 0.932-1.263l0.013-0.028c0.227-0.441 0.4-0.953 0.491-1.492l0.004-0.031c0.084-0.475 0.138-1.028 0.148-1.591l0-0.010c0.003-0.248 0.003-0.489 0.003-0.738 0.006-0.291 0.006-0.58 0.006-0.875v-16.743c0-0.293 0-0.584-0.006-0.873 0-0.245 0-0.491-0.003-0.737-0.011-0.574-0.064-1.127-0.158-1.666l0.009 0.064c-0.095-0.57-0.268-1.082-0.509-1.553l0.014 0.030c-0.503-0.967-1.272-1.736-2.21-2.226l-0.029-0.014c-0.442-0.228-0.954-0.402-1.494-0.497l-0.032-0.005c-0.477-0.084-1.030-0.135-1.594-0.141l-0.006-0c-0.244-0.004-0.494-0.009-0.738-0.010-0.288-0.002-0.58-0.002-0.867-0.002z">
      </path>
      <path
        d="M6.756 31.3c-0.244 0-0.482-0.003-0.723-0.009-0.534-0.007-1.050-0.054-1.555-0.139l0.059 0.008c-0.497-0.087-0.942-0.24-1.352-0.451l0.026 0.012c-0.43-0.22-0.799-0.492-1.117-0.813l-0-0c-0.324-0.318-0.596-0.687-0.805-1.093l-0.011-0.024c-0.199-0.384-0.351-0.829-0.431-1.299l-0.004-0.027c-0.078-0.447-0.126-0.965-0.133-1.493l-0-0.007c-0.005-0.169-0.012-0.73-0.012-0.73v-18.48s0.007-0.553 0.012-0.716c0.007-0.534 0.055-1.052 0.141-1.556l-0.008 0.059c0.084-0.498 0.235-0.945 0.447-1.356l-0.012 0.026c0.22-0.431 0.491-0.8 0.812-1.118l0-0c0.321-0.322 0.691-0.594 1.097-0.806l0.025-0.012c0.383-0.198 0.827-0.349 1.295-0.431l0.028-0.004c0.447-0.077 0.965-0.124 1.494-0.131l0.007-0 0.722-0.010 82.945 0.010c0.53 0.006 1.044 0.054 1.545 0.138l-0.058-0.008c0.501 0.087 0.95 0.239 1.364 0.451l-0.027-0.012c0.834 0.436 1.498 1.101 1.92 1.911l0.012 0.025c0.196 0.382 0.345 0.825 0.424 1.292l0.004 0.027c0.078 0.447 0.129 0.968 0.139 1.5l0 0.010c0.002 0.227 0.002 0.47 0.002 0.712 0.006 0.3 0.006 0.586 0.006 0.873v16.743c0 0.291 0 0.574-0.006 0.86 0 0.26 0 0.498-0.003 0.744-0.010 0.532-0.060 1.044-0.145 1.543l0.009-0.060c-0.082 0.5-0.233 0.949-0.444 1.362l0.012-0.026c-0.222 0.426-0.493 0.792-0.812 1.108l-0 0c-0.319 0.323-0.689 0.596-1.095 0.807l-0.024 0.011c-0.386 0.2-0.834 0.353-1.306 0.436l-0.028 0.004c-0.445 0.077-0.962 0.124-1.489 0.13l-0.007 0c-0.234 0.005-0.48 0.009-0.718 0.009l-0.867 0.002z">
      </path>
      <path fill="#fff" d="M19.815 16.241c0.019-1.4 0.761-2.622 1.869-3.312l0.017-0.010c-0.718-1.017-1.874-1.684-3.186-1.726l-0.006-0c-1.343-0.141-2.646 0.804-3.33 0.804-0.698 0-1.752-0.79-2.887-0.767-1.536 0.051-2.86 0.909-3.567 2.161l-0.011 0.021c-1.547 2.679-0.393 6.616 1.089 8.781 0.742 1.060 1.608 2.245 2.742 2.203 1.11-0.046 1.524-0.708 2.864-0.708 1.327 0 1.716 0.708 2.873 0.681 1.191-0.019 1.941-1.065 2.656-2.135 0.506-0.71 0.92-1.531 1.198-2.412l0.017-0.062c-1.383-0.596-2.334-1.946-2.335-3.519v-0z">
      </path>
      <path fill="#fff"
        d="M17.63 9.769c0.562-0.671 0.903-1.543 0.903-2.495 0-0.105-0.004-0.209-0.012-0.311l0.001 0.014c-1.028 0.111-1.925 0.6-2.562 1.323l-0.004 0.004c-0.573 0.65-0.923 1.508-0.923 2.448 0 0.085 0.003 0.169 0.008 0.252l-0.001-0.011c0.010 0 0.022 0 0.034 0 1.030 0 1.95-0.475 2.551-1.218l0.005-0.006z">
      </path>
      <path fill="#fff"
        d="M33.842 21.712h-3.787l-0.909 2.685h-1.604l3.587-9.934h1.666l3.587 9.934h-1.631zM30.447 20.473h3.002l-1.48-4.358h-0.041z">
      </path>
      <path fill="#fff"
        d="M44.128 20.776c0 2.251-1.205 3.697-3.023 3.697-0.038 0.002-0.083 0.003-0.128 0.003-0.921 0-1.724-0.507-2.144-1.258l-0.006-0.012h-0.034v3.587h-1.487v-9.639h1.439v1.205h0.027c0.453-0.772 1.279-1.282 2.223-1.282 0.029 0 0.058 0 0.087 0.001l-0.004-0c1.838 0 3.050 1.453 3.050 3.698zM42.6 20.776c0-1.466-0.758-2.43-1.914-2.43-1.136 0-1.9 0.984-1.9 2.43 0 1.459 0.764 2.437 1.9 2.437 1.156 0 1.914-0.957 1.914-2.437z">
      </path>
      <path fill="#fff"
        d="M52.1 20.776c0 2.251-1.205 3.697-3.023 3.697-0.038 0.002-0.083 0.003-0.128 0.003-0.921 0-1.724-0.507-2.144-1.258l-0.006-0.012h-0.034v3.587h-1.487v-9.639h1.439v1.205h0.027c0.453-0.772 1.279-1.282 2.223-1.282 0.029 0 0.058 0 0.087 0.001l-0.004-0c1.838 0 3.050 1.453 3.050 3.698zM50.572 20.776c0-1.466-0.758-2.43-1.914-2.43-1.136 0-1.9 0.984-1.9 2.43 0 1.459 0.764 2.437 1.9 2.437 1.156 0 1.914-0.957 1.914-2.437z">
      </path>
      <path fill="#fff"
        d="M57.368 21.629c0.11 0.985 1.067 1.632 2.375 1.632 1.253 0 2.155-0.647 2.155-1.535 0-0.771-0.544-1.233-1.831-1.549l-1.288-0.31c-1.824-0.441-2.671-1.294-2.671-2.678 0-1.714 1.494-2.891 3.615-2.891 2.099 0 3.538 1.177 3.587 2.891h-1.501c-0.090-0.991-0.909-1.59-2.107-1.59s-2.017 0.605-2.017 1.487c0 0.702 0.523 1.116 1.804 1.432l1.095 0.269c2.038 0.482 2.885 1.301 2.885 2.754 0 1.859-1.48 3.023-3.835 3.023-2.203 0-3.691-1.137-3.787-2.934z">
      </path>
      <path fill="#fff"
        d="M66.677 15.44v1.714h1.377v1.177h-1.377v3.993c0 0.62 0.276 0.909 0.881 0.909 0.176-0.003 0.345-0.016 0.512-0.037l-0.023 0.002v1.17c-0.225 0.044-0.485 0.069-0.75 0.069-0.027 0-0.053-0-0.080-0.001l0.004 0c-1.466 0-2.038-0.551-2.038-1.955v-4.152h-1.053v-1.177h1.053v-1.714z">
      </path>
      <path fill="#fff"
        d="M68.852 20.776c0-2.279 1.342-3.711 3.435-3.711 2.1 0 3.436 1.432 3.436 3.711 0 2.285-1.329 3.711-3.436 3.711s-3.435-1.426-3.435-3.711zM74.208 20.776c0-1.563-0.716-2.486-1.921-2.486s-1.92 0.93-1.92 2.486c0 1.57 0.716 2.485 1.92 2.485s1.921-0.916 1.921-2.485z">
      </path>
      <path fill="#fff"
        d="M76.949 17.154h1.418v1.233h0.034c0.194-0.758 0.871-1.31 1.676-1.31 0.023 0 0.046 0 0.069 0.001l-0.003-0c0.002 0 0.005 0 0.008 0 0.178 0 0.351 0.020 0.517 0.058l-0.015-0.003v1.391c-0.182-0.058-0.391-0.091-0.607-0.091-0.021 0-0.043 0-0.064 0.001l0.003-0c-0.018-0.001-0.039-0.001-0.061-0.001-0.827 0-1.498 0.671-1.498 1.498 0 0.060 0.004 0.119 0.010 0.177l-0.001-0.007v4.296h-1.487z">
      </path>
      <path fill="#fff"
        d="M87.507 22.27c-0.2 1.315-1.48 2.217-3.119 2.217-2.107 0-3.415-1.412-3.415-3.677 0-2.272 1.315-3.745 3.352-3.745 2.004 0 3.264 1.377 3.264 3.573v0.509h-5.116v0.090c-0.005 0.050-0.007 0.108-0.007 0.166 0 1.042 0.845 1.886 1.886 1.886 0.024 0 0.049-0 0.073-0.001l-0.004 0c0.046 0.005 0.099 0.007 0.153 0.007 0.684 0 1.27-0.419 1.516-1.015l0.004-0.011zM82.482 20.108h3.621c0.002-0.029 0.003-0.063 0.003-0.097 0-0.962-0.78-1.742-1.742-1.742-0.013 0-0.026 0-0.039 0l0.002-0c-0.003-0-0.007-0-0.011-0-1.013 0-1.834 0.821-1.834 1.834 0 0.002 0 0.003 0 0.005v-0z">
      </path>
      <path fill="#fff"
        d="M30.261 6.985c0.045-0.003 0.098-0.005 0.151-0.005 1.166 0 2.112 0.945 2.112 2.112 0 0.094-0.006 0.186-0.018 0.276l0.001-0.011c0 1.525-0.824 2.402-2.246 2.402h-1.724v-4.773zM29.278 11.083h0.9c0.027 0.002 0.058 0.003 0.090 0.003 0.829 0 1.501-0.672 1.501-1.501 0-0.077-0.006-0.153-0.017-0.227l0.001 0.008c0.009-0.061 0.014-0.132 0.014-0.205 0-0.831-0.674-1.505-1.505-1.505-0.029 0-0.058 0.001-0.087 0.003l0.004-0h-0.9z">
      </path>
      <path fill="#fff"
        d="M33.345 9.955c-0.005-0.049-0.008-0.105-0.008-0.163 0-0.943 0.764-1.707 1.707-1.707s1.707 0.764 1.707 1.707c0 0.057-0.003 0.114-0.008 0.17l0.001-0.007c0.005 0.050 0.008 0.107 0.008 0.165 0 0.943-0.764 1.707-1.707 1.707s-1.707-0.764-1.707-1.707c0-0.058 0.003-0.116 0.009-0.173l-0.001 0.007zM36.011 9.955c0-0.781-0.351-1.238-0.966-1.238-0.618 0-0.966 0.457-0.966 1.238 0 0.787 0.348 1.24 0.966 1.24 0.616 0 0.966-0.456 0.966-1.24z">
      </path>
      <path fill="#fff"
        d="M41.259 11.758h-0.737l-0.745-2.653h-0.056l-0.741 2.653h-0.73l-0.993-3.602h0.721l0.645 2.749h0.053l0.741-2.749h0.682l0.741 2.749h0.056l0.642-2.749h0.711z">
      </path>
      <path fill="#fff"
        d="M43.083 8.156h0.684v0.572h0.053c0.171-0.383 0.549-0.645 0.988-0.645 0.031 0 0.061 0.001 0.091 0.004l-0.004-0c0.026-0.002 0.057-0.003 0.088-0.003 0.647 0 1.172 0.525 1.172 1.172 0 0.060-0.005 0.12-0.013 0.178l0.001-0.007v2.332h-0.711v-2.153c0-0.579-0.252-0.867-0.777-0.867-0.011-0.001-0.025-0.001-0.038-0.001-0.456 0-0.826 0.37-0.826 0.826 0 0.031 0.002 0.061 0.005 0.091l-0-0.004v2.107h-0.711z">
      </path>
      <path fill="#fff" d="M47.275 6.75h0.711v5.009h-0.711z"></path>
      <path fill="#fff"
        d="M48.974 9.955c-0.005-0.049-0.008-0.105-0.008-0.162 0-0.943 0.764-1.707 1.707-1.707s1.707 0.764 1.707 1.707c0 0.057-0.003 0.114-0.008 0.169l0.001-0.007c0.005 0.050 0.008 0.107 0.008 0.165 0 0.943-0.764 1.707-1.707 1.707s-1.707-0.764-1.707-1.707c0-0.058 0.003-0.116 0.009-0.172l-0.001 0.007zM51.641 9.955c0-0.781-0.351-1.238-0.966-1.238-0.618 0-0.966 0.457-0.966 1.238 0 0.787 0.348 1.24 0.966 1.24 0.616 0 0.966-0.456 0.966-1.24z">
      </path>
      <path fill="#fff"
        d="M53.121 10.739c0-0.648 0.483-1.022 1.34-1.075l0.976-0.056v-0.311c0-0.38-0.252-0.595-0.737-0.595-0.397 0-0.672 0.146-0.751 0.4h-0.688c0.073-0.619 0.655-1.016 1.472-1.016 0.903 0 1.413 0.45 1.413 1.211v2.461h-0.684v-0.506h-0.056c-0.218 0.343-0.596 0.567-1.026 0.567-0.020 0-0.039-0-0.059-0.001l0.003 0c-0.034 0.004-0.073 0.006-0.113 0.006-0.599 0-1.086-0.485-1.088-1.084v-0zM55.436 10.432v-0.301l-0.88 0.056c-0.496 0.033-0.721 0.202-0.721 0.52 0 0.324 0.281 0.513 0.668 0.513 0.026 0.003 0.055 0.004 0.086 0.004 0.449 0 0.816-0.348 0.847-0.789l0-0.003z">
      </path>
      <path fill="#fff"
        d="M57.079 9.955c0-1.138 0.585-1.859 1.495-1.859 0.016-0.001 0.035-0.001 0.055-0.001 0.453 0 0.847 0.254 1.047 0.627l0.003 0.006h0.053v-1.979h0.711v5.009h-0.681v-0.569h-0.056c-0.22 0.379-0.623 0.629-1.085 0.629-0.016 0-0.032-0-0.048-0.001l0.002 0c-0.916 0-1.495-0.721-1.495-1.862zM57.813 9.955c0 0.764 0.36 1.224 0.962 1.224 0.599 0 0.97-0.466 0.97-1.221 0-0.751-0.374-1.224-0.97-1.224-0.598 0-0.963 0.463-0.963 1.221z">
      </path>
      <path fill="#fff"
        d="M63.384 9.955c-0.005-0.049-0.008-0.105-0.008-0.163 0-0.943 0.764-1.707 1.707-1.707s1.707 0.764 1.707 1.707c0 0.057-0.003 0.114-0.008 0.17l0.001-0.007c0.005 0.050 0.008 0.107 0.008 0.165 0 0.943-0.764 1.707-1.707 1.707s-1.707-0.764-1.707-1.707c0-0.058 0.003-0.116 0.009-0.173l-0.001 0.007zM66.050 9.955c0-0.781-0.351-1.238-0.966-1.238-0.618 0-0.966 0.457-0.966 1.238 0 0.787 0.348 1.24 0.966 1.24 0.616 0 0.966-0.456 0.966-1.24z">
      </path>
      <path fill="#fff"
        d="M67.736 8.156h0.684v0.572h0.053c0.171-0.383 0.549-0.645 0.988-0.645 0.031 0 0.061 0.001 0.091 0.004l-0.004-0c0.026-0.002 0.057-0.003 0.088-0.003 0.647 0 1.172 0.525 1.172 1.172 0 0.060-0.005 0.12-0.013 0.178l0.001-0.007v2.332h-0.711v-2.153c0-0.579-0.252-0.867-0.777-0.867-0.011-0.001-0.025-0.001-0.038-0.001-0.456 0-0.826 0.37-0.826 0.826 0 0.031 0.002 0.061 0.005 0.091l-0-0.004v2.107h-0.711z">
      </path>
      <path fill="#fff"
        d="M74.812 7.259v0.913h0.78v0.599h-0.78v1.852c0 0.377 0.155 0.543 0.509 0.543 0.096-0 0.19-0.006 0.283-0.018l-0.011 0.001v0.592c-0.115 0.022-0.249 0.035-0.385 0.036h-0.001c-0.791 0-1.105-0.278-1.105-0.973v-2.034h-0.572v-0.599h0.572v-0.913z">
      </path>
      <path fill="#fff"
        d="M76.564 6.75h0.705v1.985h0.056c0.179-0.386 0.563-0.649 1.009-0.649 0.032 0 0.063 0.001 0.094 0.004l-0.004-0c0.019-0.001 0.042-0.002 0.064-0.002 0.655 0 1.187 0.531 1.187 1.187 0 0.056-0.004 0.111-0.011 0.164l0.001-0.006v2.326h-0.712v-2.15c0-0.575-0.268-0.867-0.77-0.867-0.021-0.002-0.045-0.003-0.069-0.003-0.465 0-0.842 0.377-0.842 0.842 0 0.026 0.001 0.052 0.004 0.078l-0-0.003v2.104h-0.711z">
      </path>
      <path fill="#fff"
        d="M83.809 10.786c-0.184 0.612-0.742 1.051-1.403 1.051-0.056 0-0.11-0.003-0.164-0.009l0.007 0.001c-0.013 0-0.028 0.001-0.043 0.001-0.904 0-1.636-0.733-1.636-1.636 0-0.079 0.006-0.156 0.016-0.232l-0.001 0.009c-0.009-0.066-0.015-0.143-0.015-0.221 0-0.918 0.744-1.661 1.661-1.661 0.005 0 0.010 0 0.015 0h-0.001c1.002 0 1.607 0.685 1.607 1.816v0.248h-2.544v0.040c-0.002 0.024-0.003 0.052-0.003 0.080 0 0.526 0.426 0.952 0.952 0.952 0.004 0 0.007-0 0.011-0h-0.001c0.031 0.004 0.067 0.006 0.103 0.006 0.322 0 0.604-0.177 0.752-0.439l0.002-0.004zM81.308 9.625h1.82c0.001-0.019 0.002-0.042 0.002-0.064 0-0.48-0.389-0.869-0.869-0.869-0.007 0-0.014 0-0.021 0l0.001-0c-0.003-0-0.007-0-0.012-0-0.509 0-0.921 0.412-0.921 0.921 0 0.004 0 0.008 0 0.013v-0.001z">
      </path>
    </symbol>
    <symbol id="icon-favorite" viewBox="0 0 34 32">
      <path fill="#ff6b08" style="fill: var(--color1, #ff6b08)"
        d="M17.231 31.754l-2.462-2.462c-8.862-7.877-14.769-13.292-14.769-19.692 0-5.662 4.185-9.6 9.6-9.6 2.708 0 5.662 1.477 7.631 3.692 1.969-2.462 4.923-3.692 7.877-3.692 5.169 0 9.354 4.185 9.354 9.6 0 6.4-5.908 11.815-14.769 19.692l-2.462 2.462z">
      </path>
    </symbol>
    <symbol id="icon-telegram" viewBox="0 0 34 32">

      <path d="M10.831 17.17l1.898 5.254s0.237 0.492 0.491 0.492 4.034-3.932 4.034-3.932l4.203-8.119-10.559 4.949z">
      </path>
      <path d="M13.347 18.517l-0.364 3.873s-0.153 1.187 1.034 0 2.322-2.102 2.322-2.102z"></path>
      <path
        d="M10.865 17.357l-3.905-1.272s-0.467-0.189-0.316-0.619c0.031-0.089 0.093-0.164 0.28-0.293 0.865-0.603 16.014-6.048 16.014-6.048s0.428-0.144 0.68-0.048c0.127 0.040 0.222 0.143 0.251 0.272l0 0.002c0.022 0.088 0.035 0.189 0.035 0.293 0 0.018-0 0.036-0.001 0.054l0-0.003c-0.001 0.1-0.013 0.193-0.023 0.339-0.092 1.489-2.853 12.599-2.853 12.599s-0.165 0.65-0.757 0.672c-0.010 0-0.023 0.001-0.035 0.001-0.294 0-0.56-0.117-0.755-0.306l0 0c-1.161-0.999-5.176-3.697-6.063-4.29-0.040-0.027-0.067-0.070-0.073-0.119l-0-0.001c-0.012-0.063 0.056-0.14 0.056-0.14s6.99-6.213 7.176-6.866c0.014-0.051-0.040-0.075-0.113-0.053-0.464 0.171-8.513 5.253-9.401 5.814-0.037 0.012-0.080 0.018-0.124 0.018-0.026 0-0.051-0.002-0.076-0.007l0.003 0z">
      </path>
    </symbol>
    <symbol id="icon-ukraine" viewBox="0 0 48 32">
      <path fill="#005bbb" style="fill: var(--color1, #005bbb)" d="M0 0h48v32h-48v-32z"></path>
      <path fill="#ffd500" style="fill: var(--color2, #ffd500)" d="M0 16h48v16h-48v-16z"></path>
    </symbol>
    <symbol id="icon-eng" viewBox="0 0 43 32">
      <path fill="#012169" style="fill: var(--color1, #012169)" d="M0 0h42.667v32h-42.667z"></path>
      <path fill="#fff" style="fill: var(--color2, #fff)"
        d="M5 0l16.267 12.067 16.2-12.067h5.2v4.133l-16 11.933 16 11.867v4.067h-5.333l-16-11.933-15.933 11.933h-5.4v-4l15.933-11.867-15.933-11.867v-4.267h5z">
      </path>
      <path fill="#c8102e" style="fill: var(--color3, #c8102e)"
        d="M28.267 18.733l14.4 10.6v2.667l-18.067-13.267h3.667zM16 20.067l0.4 2.333-12.8 9.6h-3.6l16-11.933zM42.667 0v0.2l-16.6 12.533 0.133-2.933 13.133-9.8h3.333zM0 0l15.933 11.733h-4l-11.933-8.933v-2.8z">
      </path>
      <path fill="#fff" style="fill: var(--color2, #fff)"
        d="M16.067 0v32h10.667v-32h-10.667zM0 10.667v10.667h42.667v-10.667h-42.667z"></path>
      <path fill="#c8102e" style="fill: var(--color3, #c8102e)"
        d="M0 12.867v6.4h42.667v-6.4h-42.667zM18.2 0v32h6.4v-32h-6.4z"></path>
    </symbol>
    <symbol id="icon-google-play-ua" viewBox="0 0 108 32">
<path  d="M4 0h100c2.209 0 4 1.791 4 4v24c0 2.209-1.791 4-4 4h-100c-2.209 0-4-1.791-4-4v-24c0-2.209 1.791-4 4-4z"></path>
<path fill="#a6a6a6" style="fill: var(--color2, #a6a6a6)" d="M104 0.64c1.856 0 3.36 1.504 3.36 3.36v0 24c0 1.856-1.504 3.36-3.36 3.36v0h-100c-1.856 0-3.36-1.504-3.36-3.36v0-24c0-1.856 1.504-3.36 3.36-3.36v0h100zM104 0h-100c-2.206 0.007-3.993 1.794-4 3.999v24.001c0.007 2.206 1.794 3.993 3.999 4h100.001c2.206-0.007 3.993-1.794 4-3.999v-24.001c-0.007-2.206-1.794-3.993-3.999-4h-0.001z"></path>
<path fill="#fff" style="fill: var(--color3, #fff)" d="M54.509 17.402c-1.874 0.007-3.39 1.528-3.39 3.402 0 1.879 1.523 3.402 3.402 3.402s3.402-1.523 3.402-3.402v0c0-0.015 0-0.032 0-0.049 0-1.852-1.501-3.354-3.354-3.354-0.022 0-0.044 0-0.065 0.001l0.003-0zM54.509 22.866c-0.044 0.003-0.096 0.005-0.148 0.005-1.142 0-2.068-0.926-2.068-2.068s0.926-2.068 2.068-2.068c1.142 0 2.068 0.926 2.068 2.068 0 0 0 0 0 0v0c0.001 0.028 0.002 0.061 0.002 0.094 0 1.071-0.855 1.942-1.92 1.968l-0.002 0zM47.058 17.402c-1.873 0.008-3.389 1.528-3.389 3.402 0 1.879 1.523 3.402 3.402 3.402s3.402-1.523 3.402-3.402v0c0-0.015 0-0.032 0-0.049 0-1.852-1.501-3.354-3.354-3.354-0.022 0-0.044 0-0.066 0.001l0.003-0zM47.058 22.866c-0.044 0.003-0.096 0.005-0.148 0.005-1.142 0-2.068-0.926-2.068-2.068s0.926-2.068 2.068-2.068c1.142 0 2.068 0.926 2.068 2.068 0 0 0 0 0 0v0c0.001 0.028 0.002 0.061 0.002 0.094 0 1.071-0.855 1.942-1.92 1.968l-0.002 0zM38.195 18.446v1.44h3.454c-0.053 0.706-0.343 1.336-0.788 1.82l0.002-0.002c-0.642 0.654-1.536 1.060-2.524 1.060-0.050 0-0.1-0.001-0.15-0.003l0.007 0c-2.121 0-3.84-1.719-3.84-3.84s1.719-3.84 3.84-3.84v0c0.014-0 0.031-0 0.048-0 0.994 0 1.896 0.394 2.558 1.034l-0.001-0.001 1.018-1.018c-0.91-0.901-2.163-1.457-3.545-1.457-0.027 0-0.054 0-0.081 0.001l0.004-0c-0.019-0-0.042-0-0.065-0-2.919 0-5.285 2.366-5.285 5.285s2.366 5.285 5.285 5.285c0.023 0 0.046-0 0.069-0l-0.003 0c0.060 0.003 0.13 0.004 0.2 0.004 1.369 0 2.605-0.57 3.484-1.485l0.002-0.002c0.777-0.846 1.253-1.978 1.253-3.222 0-0.054-0.001-0.109-0.003-0.163l0 0.008c0-0.012 0-0.026 0-0.040 0-0.305-0.029-0.602-0.085-0.891l0.005 0.029zM74.442 19.566c-0.421-1.241-1.559-2.125-2.908-2.165l-0.005-0c-1.777 0.012-3.213 1.455-3.213 3.234 0 0.060 0.002 0.119 0.005 0.178l-0-0.008c-0.001 0.022-0.001 0.047-0.001 0.073 0 1.839 1.491 3.33 3.33 3.33 0.017 0 0.033-0 0.050-0l-0.002 0c0.006 0 0.012 0 0.019 0 1.17 0 2.201-0.594 2.81-1.496l0.008-0.012-1.16-0.773c-0.347 0.568-0.963 0.941-1.666 0.941-0.004 0-0.007 0-0.010-0h0.001c-0.020 0.001-0.043 0.001-0.066 0.001-0.703 0-1.309-0.419-1.58-1.021l-0.004-0.011 4.55-1.882zM69.802 20.7c-0.002-0.035-0.004-0.075-0.004-0.116 0-1.001 0.788-1.818 1.778-1.864l0.004-0c0.026-0.002 0.056-0.003 0.087-0.003 0.511 0 0.954 0.291 1.173 0.715l0.003 0.007zM66.102 24h1.498v-10h-1.498zM63.654 18.16h-0.054c-0.432-0.468-1.049-0.761-1.735-0.761-0.020 0-0.040 0-0.059 0.001l0.003-0c-1.816 0.081-3.258 1.573-3.258 3.402s1.442 3.321 3.251 3.402l0.007 0c0.018 0 0.040 0.001 0.061 0.001 0.687 0 1.303-0.298 1.728-0.772l0.002-0.002h0.051v0.489c0 1.302-0.696 2-1.817 2-0.781-0.019-1.442-0.511-1.71-1.199l-0.004-0.013-1.302 0.542c0.498 1.19 1.653 2.010 2.999 2.010 0.006 0 0.012-0 0.018-0h-0.001c1.753 0 3.235-1.031 3.235-3.544v-6.109h-1.416zM61.94 22.865c-1.066-0.092-1.897-0.98-1.897-2.062s0.831-1.971 1.889-2.062l0.008-0.001c1.019 0.051 1.827 0.89 1.827 1.918 0 0.056-0.002 0.111-0.007 0.166l0.001-0.007c0.004 0.045 0.006 0.097 0.006 0.149 0 1.024-0.809 1.858-1.822 1.9l-0.004 0zM81.445 14h-3.577v10h1.492v-3.789h2.085c0.049 0.003 0.107 0.004 0.165 0.004 1.718 0 3.11-1.393 3.11-3.11s-1.393-3.11-3.11-3.11c-0.058 0-0.116 0.002-0.173 0.005l0.008-0zM81.483 18.82h-2.123v-3.429h2.123c0.011-0 0.024-0 0.037-0 0.947 0 1.714 0.768 1.714 1.714s-0.768 1.714-1.714 1.714c-0.013 0-0.026-0-0.039-0l0.002 0zM90.709 17.38c-0.049-0.003-0.107-0.005-0.165-0.005-1.085 0-2.026 0.618-2.491 1.52l-0.007 0.016 1.326 0.553c0.245-0.443 0.709-0.739 1.243-0.739 0.043 0 0.085 0.002 0.126 0.006l-0.005-0c0.041-0.004 0.089-0.007 0.137-0.007 0.744 0 1.356 0.564 1.432 1.288l0.001 0.006v0.102c-0.449-0.243-0.982-0.386-1.549-0.386-0.003 0-0.005 0-0.008 0h0c-1.428 0-2.88 0.785-2.88 2.251 0.057 1.231 1.069 2.207 2.309 2.207 0.060 0 0.12-0.002 0.179-0.007l-0.008 0c0.037 0.002 0.080 0.004 0.124 0.004 0.746 0 1.402-0.388 1.776-0.974l0.005-0.008h0.051v0.772h1.44v-3.83c0.002-1.776-1.323-2.766-3.034-2.766zM90.528 22.861c-0.489 0-1.17-0.24-1.17-0.849 0-0.772 0.849-1.068 1.582-1.068 0.020-0.001 0.043-0.001 0.066-0.001 0.475 0 0.921 0.124 1.307 0.342l-0.013-0.007c-0.114 0.89-0.861 1.573-1.771 1.586h-0.001zM98.994 17.6l-1.711 4.336h-0.051l-1.776-4.336h-1.608l2.663 6.060-1.52 3.371h1.557l4.106-9.431zM85.549 24h1.491v-10h-1.493z"></path>
<path fill="#fff"  d="M8.348 6.030c-0.232 0.276-0.373 0.635-0.373 1.027 0 0.033 0.001 0.065 0.003 0.097l-0-0.004v17.697c-0.002 0.028-0.003 0.060-0.003 0.093 0 0.392 0.141 0.751 0.375 1.029l-0.002-0.002 0.059 0.058 9.913-9.907v-0.234l-9.913-9.911z"></path>
<path fill="#fff"  d="M21.622 19.423l-3.302-3.306v-0.234l3.305-3.304 0.074 0.042 3.914 2.224c1.12 0.635 1.12 1.674 0 2.31l-3.914 2.225z"></path>
<path fill="#fff"  d="M21.698 19.38l-3.378-3.38-9.972 9.971c0.228 0.202 0.53 0.325 0.861 0.325 0.304 0 0.583-0.104 0.805-0.279l-0.003 0.002 11.687-6.64z"></path>
<path fill="#fff"  d="M21.698 12.622l-11.687-6.64c-0.219-0.172-0.498-0.277-0.802-0.277-0.331 0-0.632 0.123-0.862 0.327l0.001-0.001 9.972 9.97z"></path>
<path fill="#000" style="fill: var(--color1, #000)" opacity="0.2" d="M21.623 19.306l-11.613 6.598c-0.221 0.17-0.502 0.272-0.806 0.272-0.299 0-0.575-0.099-0.798-0.265l0.003 0.002-0.060 0.060 0.059 0.058c0.219 0.164 0.495 0.263 0.794 0.263 0.304 0 0.585-0.102 0.809-0.274l-0.003 0.002 11.687-6.64z"></path>
<path fill="#000" style="fill: var(--color1, #000)" opacity="0.12" d="M8.348 25.854c-0.232-0.276-0.373-0.635-0.373-1.027 0-0.033 0.001-0.065 0.003-0.097l-0 0.004v0.117c-0.002 0.029-0.003 0.063-0.003 0.097 0 0.392 0.141 0.751 0.375 1.030l-0.002-0.002 0.060-0.060z"></path>
<path fill="#000" style="fill: var(--color1, #000)" opacity="0.12" d="M25.612 17.040l-3.989 2.266 0.074 0.074 3.914-2.224c0.462-0.204 0.788-0.637 0.838-1.151l0-0.006c-0.104 0.466-0.415 0.844-0.829 1.036l-0.009 0.004z"></path>
<path fill="#fff" style="fill: var(--color3, #fff)" opacity="0.25" d="M10.010 6.098l15.6 8.864c0.424 0.196 0.735 0.572 0.838 1.028l0.002 0.010c-0.051-0.519-0.377-0.951-0.829-1.152l-0.009-0.004-15.6-8.864c-1.12-0.635-2.033-0.107-2.033 1.174v0.118c-0.002-1.281 0.914-1.809 2.031-1.174z"></path>
<path fill="#fff" style="fill: var(--color3, #fff)"  d="M34.654 10.533c-0.352-0.005-0.676-0.116-0.944-0.304l0.005 0.004c-0.306-0.211-0.531-0.522-0.627-0.885l-0.002-0.011 0.588-0.246c0.062 0.244 0.193 0.452 0.37 0.608l0.001 0.001c0.159 0.135 0.366 0.217 0.592 0.217 0.006 0 0.012-0 0.018-0h-0.001c0.006 0 0.013 0 0.020 0 0.251 0 0.481-0.093 0.656-0.246l-0.001 0.001c0.173-0.143 0.283-0.358 0.283-0.598 0-0.004-0-0.008-0-0.012v0.001c0-0.001 0-0.003 0-0.005 0-0.242-0.113-0.457-0.289-0.596l-0.002-0.001c-0.18-0.152-0.416-0.245-0.672-0.245-0.008 0-0.017 0-0.025 0l0.001-0h-0.414v-0.602h0.365c0.010 0 0.021 0.001 0.032 0.001 0.225 0 0.431-0.079 0.593-0.211l-0.002 0.001c0.152-0.129 0.249-0.32 0.249-0.533 0-0.009-0-0.019-0.001-0.028l0 0.001c0-0.008 0.001-0.017 0.001-0.027 0-0.199-0.094-0.377-0.239-0.49l-0.001-0.001c-0.156-0.118-0.354-0.189-0.568-0.189-0.011 0-0.021 0-0.032 0.001l0.002-0c-0.010-0-0.022-0.001-0.033-0.001-0.384 0-0.707 0.263-0.798 0.618l-0.001 0.006-0.596-0.252c0.107-0.276 0.277-0.507 0.494-0.684l0.003-0.002c0.236-0.189 0.539-0.303 0.869-0.303 0.023 0 0.046 0.001 0.069 0.002l-0.003-0c0.016-0.001 0.035-0.001 0.054-0.001 0.389 0 0.745 0.142 1.019 0.377l-0.002-0.002c0.262 0.223 0.428 0.553 0.428 0.921 0 0.010-0 0.019-0 0.029l0-0.001c0 0.010 0.001 0.021 0.001 0.033 0 0.44-0.26 0.819-0.634 0.993l-0.007 0.003v0.028c0.235 0.098 0.43 0.252 0.575 0.444l0.003 0.004c0.142 0.19 0.227 0.429 0.227 0.688 0 0.009-0 0.018-0 0.027l0-0.001c0 0.009 0 0.020 0 0.031 0 0.408-0.181 0.774-0.467 1.022l-0.002 0.001c-0.293 0.259-0.681 0.417-1.105 0.417-0.017 0-0.033-0-0.049-0.001l0.002 0z"></path>
<path fill="#fff" style="fill: var(--color3, #fff)" d="M36.67 10.421l1.89-5.012h0.728l1.89 5.012h-0.714l-0.48-1.36h-2.11l-0.491 1.36zM38.090 8.461h1.67l-0.822-2.261h-0.028z"></path>
<path fill="#fff" style="fill: var(--color3, #fff)" d="M41.824 10.421v-5.012h1.814c0.007-0 0.015-0 0.023-0 0.384 0 0.734 0.148 0.996 0.39l-0.001-0.001c0.265 0.231 0.431 0.569 0.431 0.946 0 0.011-0 0.021-0 0.031l0-0.002c0 0.006 0 0.013 0 0.020 0 0.227-0.069 0.439-0.187 0.614l0.002-0.004c-0.123 0.18-0.29 0.321-0.486 0.41l-0.007 0.003v0.028c0.248 0.084 0.456 0.235 0.607 0.431l0.002 0.003c0.15 0.19 0.24 0.433 0.24 0.697 0 0.006-0 0.012-0 0.018v-0.001c0 0.007 0 0.016 0 0.025 0 0.398-0.176 0.754-0.455 0.996l-0.002 0.001c-0.275 0.252-0.642 0.406-1.046 0.406-0.008 0-0.015-0-0.023-0h0.001zM42.464 7.558h1.17c0.010 0 0.021 0.001 0.032 0.001 0.218 0 0.414-0.092 0.552-0.24l0-0c0.136-0.136 0.221-0.323 0.221-0.531 0-0.204-0.081-0.389-0.214-0.524l0 0c-0.132-0.148-0.324-0.24-0.537-0.24-0.008 0-0.016 0-0.024 0l0.001-0h-1.2zM42.464 9.805h1.296c0.008 0 0.017 0 0.026 0 0.229 0 0.434-0.1 0.575-0.259l0.001-0.001c0.141-0.147 0.228-0.346 0.23-0.566v-0.001c-0.012-0.455-0.384-0.819-0.841-0.819-0.006 0-0.011 0-0.017 0h-1.266z"></path>
<path fill="#fff" style="fill: var(--color3, #fff)" d="M45.575 10.421l1.89-5.012h0.728l1.887 5.012h-0.714l-0.48-1.36h-2.107l-0.491 1.36zM46.995 8.461h1.666l-0.822-2.261h-0.028z"></path>
<path fill="#fff" style="fill: var(--color3, #fff)" d="M50.73 10.421v-5.012h0.64v2.149h2.506v-2.149h0.64v5.012h-0.64v-2.261h-2.502v2.261z"></path>
<path fill="#fff" style="fill: var(--color3, #fff)" d="M57.258 10.421h-0.644v-4.396h-1.4v-0.616h3.444v0.616h-1.4z"></path>
<path fill="#fff" style="fill: var(--color3, #fff)" d="M58.487 10.421l1.89-5.012h0.728l1.89 5.012h-0.714l-0.48-1.36h-2.11l-0.491 1.36zM59.908 8.461h1.666l-0.819-2.261h-0.028z"></path>
<path fill="#fff" style="fill: var(--color3, #fff)" d="M66.842 8.125v2.296h-0.644v-2.296h-0.028l-1.946 2.296h-0.84v-0.028l2.114-2.422-2.030-2.53v-0.031h0.784l1.92 2.436h0.028v-2.436h0.644v2.436h0.028l1.92-2.436h0.785v0.031l-2.034 2.53 2.114 2.422v0.028h-0.84l-1.946-2.296z"></path>
<path fill="#fff" style="fill: var(--color3, #fff)" d="M74.133 5.409v5.012h-0.64v-3.12l0.027-0.968h-0.028l-2.548 4.088h-0.672v-5.012h0.644v2.933l-0.028 0.966h0.028l2.436-3.899z"></path>
<path fill="#fff" style="fill: var(--color3, #fff)" d="M76.867 10.421h-0.644v-4.396h-1.4v-0.616h3.444v0.616h-1.4z"></path>
<path fill="#fff" style="fill: var(--color3, #fff)" d="M82.845 5.409v5.012h-0.64v-3.12l0.028-0.966h-0.028l-2.549 4.088h-0.672v-5.014h0.644v2.933l-0.028 0.966h0.027l2.437-3.899z"></path>
<path fill="#fff" style="fill: var(--color3, #fff)"  d="M86.71 10.533c-0.352-0.005-0.676-0.116-0.944-0.304l0.005 0.004c-0.307-0.211-0.531-0.522-0.627-0.885l-0.002-0.011 0.587-0.246c0.062 0.244 0.193 0.452 0.37 0.608l0.001 0.001c0.159 0.135 0.366 0.217 0.593 0.217 0.006 0 0.012-0 0.017-0h-0.001c0.006 0 0.013 0 0.020 0 0.251 0 0.481-0.093 0.656-0.246l-0.001 0.001c0.174-0.143 0.284-0.357 0.284-0.598 0-0.004-0-0.008-0-0.012v0.001c0-0.001 0-0.003 0-0.005 0-0.242-0.113-0.457-0.289-0.596l-0.002-0.001c-0.181-0.152-0.416-0.245-0.674-0.245-0.008 0-0.016 0-0.025 0l0.001-0h-0.413v-0.602h0.364c0.010 0 0.023 0.001 0.035 0.001 0.225 0 0.432-0.079 0.593-0.212l-0.002 0.001c0.153-0.129 0.249-0.32 0.249-0.534 0-0.009-0-0.018-0.001-0.028l0 0.001c0-0.008 0.001-0.017 0.001-0.027 0-0.199-0.094-0.377-0.239-0.491l-0.001-0.001c-0.156-0.118-0.353-0.189-0.567-0.189-0.011 0-0.022 0-0.033 0.001l0.002-0c-0.010-0-0.022-0.001-0.033-0.001-0.384 0-0.707 0.263-0.798 0.618l-0.001 0.006-0.595-0.252c0.106-0.276 0.277-0.508 0.494-0.684l0.003-0.002c0.236-0.188 0.538-0.302 0.867-0.302 0.023 0 0.045 0.001 0.067 0.002l-0.003-0c0.016-0.001 0.034-0.001 0.053-0.001 0.39 0 0.746 0.142 1.020 0.377l-0.002-0.002c0.262 0.223 0.427 0.553 0.427 0.921 0 0.010-0 0.019-0 0.029l0-0.001c0 0.009 0 0.020 0 0.031 0 0.441-0.261 0.822-0.638 0.995l-0.007 0.003v0.028c0.235 0.098 0.43 0.252 0.575 0.445l0.003 0.004c0.142 0.19 0.227 0.429 0.227 0.688 0 0.009-0 0.018-0 0.027l0-0.001c0 0.009 0 0.021 0 0.032 0 0.408-0.181 0.774-0.467 1.021l-0.002 0.001c-0.293 0.259-0.679 0.417-1.103 0.417-0.016 0-0.032-0-0.048-0.001l0.002 0z"></path>
</symbol>
<symbol id="icon-app-store-ua" viewBox="0 0 108 32">
      <path fill="#a6a6a6"
        d="M88.108 0h-80.48c-0.293 0-0.583 0-0.876 0.002-0.245 0.002-0.488 0.006-0.735 0.010-0.571 0.007-1.125 0.058-1.666 0.15l0.063-0.009c-0.57 0.099-1.081 0.273-1.551 0.516l0.030-0.014c-0.498 0.258-0.924 0.572-1.295 0.943v0c-0.373 0.37-0.687 0.798-0.929 1.269l-0.013 0.028c-0.229 0.441-0.403 0.952-0.496 1.491l-0.004 0.031c-0.085 0.477-0.136 1.031-0.143 1.595l-0 0.007c-0.007 0.245-0.008 0.491-0.012 0.737v18.491c0.004 0.248 0.005 0.489 0.012 0.738 0.007 0.571 0.059 1.124 0.152 1.663l-0.009-0.062c0.097 0.571 0.271 1.082 0.514 1.553l-0.014-0.029c0.255 0.497 0.57 0.923 0.942 1.291l0.001 0.001c0.369 0.373 0.797 0.687 1.267 0.93l0.028 0.013c0.44 0.229 0.95 0.405 1.488 0.5l0.032 0.005c0.477 0.083 1.031 0.134 1.596 0.141l0.008 0c0.247 0.005 0.49 0.009 0.735 0.009 0.293 0.002 0.582 0.002 0.876 0.002h80.48c0.288 0 0.58 0 0.867-0.002 0.244 0 0.494-0.003 0.738-0.009 0.571-0.007 1.124-0.058 1.663-0.15l-0.063 0.009c0.573-0.101 1.085-0.276 1.557-0.519l-0.031 0.014c0.498-0.256 0.925-0.571 1.293-0.943l0-0c0.372-0.369 0.687-0.795 0.932-1.263l0.013-0.028c0.227-0.441 0.4-0.953 0.491-1.492l0.004-0.031c0.084-0.475 0.138-1.028 0.148-1.591l0-0.010c0.003-0.248 0.003-0.489 0.003-0.738 0.006-0.291 0.006-0.58 0.006-0.875v-16.743c0-0.293 0-0.584-0.006-0.873 0-0.245 0-0.491-0.003-0.737-0.011-0.574-0.064-1.127-0.158-1.666l0.009 0.064c-0.095-0.57-0.268-1.082-0.509-1.553l0.014 0.030c-0.503-0.967-1.272-1.736-2.21-2.226l-0.029-0.014c-0.442-0.228-0.954-0.402-1.494-0.497l-0.032-0.005c-0.477-0.084-1.030-0.135-1.594-0.141l-0.006-0c-0.244-0.004-0.494-0.009-0.738-0.010-0.288-0.002-0.58-0.002-0.867-0.002z">
      </path>
      <path
        d="M6.756 31.3c-0.244 0-0.482-0.003-0.723-0.009-0.534-0.007-1.050-0.054-1.555-0.139l0.059 0.008c-0.497-0.087-0.942-0.24-1.352-0.451l0.026 0.012c-0.43-0.22-0.799-0.492-1.117-0.813l-0-0c-0.324-0.318-0.596-0.687-0.805-1.093l-0.011-0.024c-0.199-0.384-0.351-0.829-0.431-1.299l-0.004-0.027c-0.078-0.447-0.126-0.965-0.133-1.493l-0-0.007c-0.005-0.169-0.012-0.73-0.012-0.73v-18.48s0.007-0.553 0.012-0.716c0.007-0.534 0.055-1.052 0.141-1.556l-0.008 0.059c0.084-0.498 0.235-0.945 0.447-1.356l-0.012 0.026c0.22-0.431 0.491-0.8 0.812-1.118l0-0c0.321-0.322 0.691-0.594 1.097-0.806l0.025-0.012c0.383-0.198 0.827-0.349 1.295-0.431l0.028-0.004c0.447-0.077 0.965-0.124 1.494-0.131l0.007-0 0.722-0.010 82.945 0.010c0.53 0.006 1.044 0.054 1.545 0.138l-0.058-0.008c0.501 0.087 0.95 0.239 1.364 0.451l-0.027-0.012c0.834 0.436 1.498 1.101 1.92 1.911l0.012 0.025c0.196 0.382 0.345 0.825 0.424 1.292l0.004 0.027c0.078 0.447 0.129 0.968 0.139 1.5l0 0.010c0.002 0.227 0.002 0.47 0.002 0.712 0.006 0.3 0.006 0.586 0.006 0.873v16.743c0 0.291 0 0.574-0.006 0.86 0 0.26 0 0.498-0.003 0.744-0.010 0.532-0.060 1.044-0.145 1.543l0.009-0.060c-0.082 0.5-0.233 0.949-0.444 1.362l0.012-0.026c-0.222 0.426-0.493 0.792-0.812 1.108l-0 0c-0.319 0.323-0.689 0.596-1.095 0.807l-0.024 0.011c-0.386 0.2-0.834 0.353-1.306 0.436l-0.028 0.004c-0.445 0.077-0.962 0.124-1.489 0.13l-0.007 0c-0.234 0.005-0.48 0.009-0.718 0.009l-0.867 0.002z">
      </path>
      <path fill="#fff" d="M19.815 16.241c0.019-1.4 0.761-2.622 1.869-3.312l0.017-0.010c-0.718-1.017-1.874-1.684-3.186-1.726l-0.006-0c-1.343-0.141-2.646 0.804-3.33 0.804-0.698 0-1.752-0.79-2.887-0.767-1.536 0.051-2.86 0.909-3.567 2.161l-0.011 0.021c-1.547 2.679-0.393 6.616 1.089 8.781 0.742 1.060 1.608 2.245 2.742 2.203 1.11-0.046 1.524-0.708 2.864-0.708 1.327 0 1.716 0.708 2.873 0.681 1.191-0.019 1.941-1.065 2.656-2.135 0.506-0.71 0.92-1.531 1.198-2.412l0.017-0.062c-1.383-0.596-2.334-1.946-2.335-3.519v-0z">
      </path>
      <path fill="#fff"
        d="M17.63 9.769c0.562-0.671 0.903-1.543 0.903-2.495 0-0.105-0.004-0.209-0.012-0.311l0.001 0.014c-1.028 0.111-1.925 0.6-2.562 1.323l-0.004 0.004c-0.573 0.65-0.923 1.508-0.923 2.448 0 0.085 0.003 0.169 0.008 0.252l-0.001-0.011c0.010 0 0.022 0 0.034 0 1.030 0 1.95-0.475 2.551-1.218l0.005-0.006z">
      </path>
      <path fill="#fff"
        d="M33.842 21.712h-3.787l-0.909 2.685h-1.604l3.587-9.934h1.666l3.587 9.934h-1.631zM30.447 20.473h3.002l-1.48-4.358h-0.041z">
      </path>
      <path fill="#fff"
        d="M44.128 20.776c0 2.251-1.205 3.697-3.023 3.697-0.038 0.002-0.083 0.003-0.128 0.003-0.921 0-1.724-0.507-2.144-1.258l-0.006-0.012h-0.034v3.587h-1.487v-9.639h1.439v1.205h0.027c0.453-0.772 1.279-1.282 2.223-1.282 0.029 0 0.058 0 0.087 0.001l-0.004-0c1.838 0 3.050 1.453 3.050 3.698zM42.6 20.776c0-1.466-0.758-2.43-1.914-2.43-1.136 0-1.9 0.984-1.9 2.43 0 1.459 0.764 2.437 1.9 2.437 1.156 0 1.914-0.957 1.914-2.437z">
      </path>
      <path fill="#fff"
        d="M52.1 20.776c0 2.251-1.205 3.697-3.023 3.697-0.038 0.002-0.083 0.003-0.128 0.003-0.921 0-1.724-0.507-2.144-1.258l-0.006-0.012h-0.034v3.587h-1.487v-9.639h1.439v1.205h0.027c0.453-0.772 1.279-1.282 2.223-1.282 0.029 0 0.058 0 0.087 0.001l-0.004-0c1.838 0 3.050 1.453 3.050 3.698zM50.572 20.776c0-1.466-0.758-2.43-1.914-2.43-1.136 0-1.9 0.984-1.9 2.43 0 1.459 0.764 2.437 1.9 2.437 1.156 0 1.914-0.957 1.914-2.437z">
      </path>
      <path fill="#fff"
        d="M57.368 21.629c0.11 0.985 1.067 1.632 2.375 1.632 1.253 0 2.155-0.647 2.155-1.535 0-0.771-0.544-1.233-1.831-1.549l-1.288-0.31c-1.824-0.441-2.671-1.294-2.671-2.678 0-1.714 1.494-2.891 3.615-2.891 2.099 0 3.538 1.177 3.587 2.891h-1.501c-0.090-0.991-0.909-1.59-2.107-1.59s-2.017 0.605-2.017 1.487c0 0.702 0.523 1.116 1.804 1.432l1.095 0.269c2.038 0.482 2.885 1.301 2.885 2.754 0 1.859-1.48 3.023-3.835 3.023-2.203 0-3.691-1.137-3.787-2.934z">
      </path>
      <path fill="#fff"
        d="M66.677 15.44v1.714h1.377v1.177h-1.377v3.993c0 0.62 0.276 0.909 0.881 0.909 0.176-0.003 0.345-0.016 0.512-0.037l-0.023 0.002v1.17c-0.225 0.044-0.485 0.069-0.75 0.069-0.027 0-0.053-0-0.080-0.001l0.004 0c-1.466 0-2.038-0.551-2.038-1.955v-4.152h-1.053v-1.177h1.053v-1.714z">
      </path>
      <path fill="#fff"
        d="M68.852 20.776c0-2.279 1.342-3.711 3.435-3.711 2.1 0 3.436 1.432 3.436 3.711 0 2.285-1.329 3.711-3.436 3.711s-3.435-1.426-3.435-3.711zM74.208 20.776c0-1.563-0.716-2.486-1.921-2.486s-1.92 0.93-1.92 2.486c0 1.57 0.716 2.485 1.92 2.485s1.921-0.916 1.921-2.485z">
      </path>
      <path fill="#fff"
        d="M76.949 17.154h1.418v1.233h0.034c0.194-0.758 0.871-1.31 1.676-1.31 0.023 0 0.046 0 0.069 0.001l-0.003-0c0.002 0 0.005 0 0.008 0 0.178 0 0.351 0.020 0.517 0.058l-0.015-0.003v1.391c-0.182-0.058-0.391-0.091-0.607-0.091-0.021 0-0.043 0-0.064 0.001l0.003-0c-0.018-0.001-0.039-0.001-0.061-0.001-0.827 0-1.498 0.671-1.498 1.498 0 0.060 0.004 0.119 0.010 0.177l-0.001-0.007v4.296h-1.487z">
      </path>
      <path fill="#fff"
        d="M87.507 22.27c-0.2 1.315-1.48 2.217-3.119 2.217-2.107 0-3.415-1.412-3.415-3.677 0-2.272 1.315-3.745 3.352-3.745 2.004 0 3.264 1.377 3.264 3.573v0.509h-5.116v0.090c-0.005 0.050-0.007 0.108-0.007 0.166 0 1.042 0.845 1.886 1.886 1.886 0.024 0 0.049-0 0.073-0.001l-0.004 0c0.046 0.005 0.099 0.007 0.153 0.007 0.684 0 1.27-0.419 1.516-1.015l0.004-0.011zM82.482 20.108h3.621c0.002-0.029 0.003-0.063 0.003-0.097 0-0.962-0.78-1.742-1.742-1.742-0.013 0-0.026 0-0.039 0l0.002-0c-0.003-0-0.007-0-0.011-0-1.013 0-1.834 0.821-1.834 1.834 0 0.002 0 0.003 0 0.005v-0z">
      </path>
      <path fill="#fff"  d="M34.654 10.533c-0.352-0.005-0.676-0.116-0.944-0.304l0.005 0.004c-0.306-0.211-0.531-0.522-0.627-0.885l-0.002-0.011 0.588-0.246c0.062 0.244 0.193 0.452 0.37 0.608l0.001 0.001c0.159 0.135 0.366 0.217 0.592 0.217 0.006 0 0.012-0 0.018-0h-0.001c0.006 0 0.013 0 0.020 0 0.251 0 0.481-0.093 0.656-0.246l-0.001 0.001c0.173-0.143 0.283-0.358 0.283-0.598 0-0.004-0-0.008-0-0.012v0.001c0-0.001 0-0.003 0-0.005 0-0.242-0.113-0.457-0.289-0.596l-0.002-0.001c-0.18-0.152-0.416-0.245-0.672-0.245-0.008 0-0.017 0-0.025 0l0.001-0h-0.414v-0.602h0.365c0.010 0 0.021 0.001 0.032 0.001 0.225 0 0.431-0.079 0.593-0.211l-0.002 0.001c0.152-0.129 0.249-0.32 0.249-0.533 0-0.009-0-0.019-0.001-0.028l0 0.001c0-0.008 0.001-0.017 0.001-0.027 0-0.199-0.094-0.377-0.239-0.49l-0.001-0.001c-0.156-0.118-0.354-0.189-0.568-0.189-0.011 0-0.021 0-0.032 0.001l0.002-0c-0.010-0-0.022-0.001-0.033-0.001-0.384 0-0.707 0.263-0.798 0.618l-0.001 0.006-0.596-0.252c0.107-0.276 0.277-0.507 0.494-0.684l0.003-0.002c0.236-0.189 0.539-0.303 0.869-0.303 0.023 0 0.046 0.001 0.069 0.002l-0.003-0c0.016-0.001 0.035-0.001 0.054-0.001 0.389 0 0.745 0.142 1.019 0.377l-0.002-0.002c0.262 0.223 0.428 0.553 0.428 0.921 0 0.010-0 0.019-0 0.029l0-0.001c0 0.010 0.001 0.021 0.001 0.033 0 0.44-0.26 0.819-0.634 0.993l-0.007 0.003v0.028c0.235 0.098 0.43 0.252 0.575 0.444l0.003 0.004c0.142 0.19 0.227 0.429 0.227 0.688 0 0.009-0 0.018-0 0.027l0-0.001c0 0.009 0 0.020 0 0.031 0 0.408-0.181 0.774-0.467 1.022l-0.002 0.001c-0.293 0.259-0.681 0.417-1.105 0.417-0.017 0-0.033-0-0.049-0.001l0.002 0z"></path>
<path fill="#fff" style="fill: var(--color3, #fff)" d="M36.67 10.421l1.89-5.012h0.728l1.89 5.012h-0.714l-0.48-1.36h-2.11l-0.491 1.36zM38.090 8.461h1.67l-0.822-2.261h-0.028z"></path>
<path fill="#fff" style="fill: var(--color3, #fff)" d="M41.824 10.421v-5.012h1.814c0.007-0 0.015-0 0.023-0 0.384 0 0.734 0.148 0.996 0.39l-0.001-0.001c0.265 0.231 0.431 0.569 0.431 0.946 0 0.011-0 0.021-0 0.031l0-0.002c0 0.006 0 0.013 0 0.020 0 0.227-0.069 0.439-0.187 0.614l0.002-0.004c-0.123 0.18-0.29 0.321-0.486 0.41l-0.007 0.003v0.028c0.248 0.084 0.456 0.235 0.607 0.431l0.002 0.003c0.15 0.19 0.24 0.433 0.24 0.697 0 0.006-0 0.012-0 0.018v-0.001c0 0.007 0 0.016 0 0.025 0 0.398-0.176 0.754-0.455 0.996l-0.002 0.001c-0.275 0.252-0.642 0.406-1.046 0.406-0.008 0-0.015-0-0.023-0h0.001zM42.464 7.558h1.17c0.010 0 0.021 0.001 0.032 0.001 0.218 0 0.414-0.092 0.552-0.24l0-0c0.136-0.136 0.221-0.323 0.221-0.531 0-0.204-0.081-0.389-0.214-0.524l0 0c-0.132-0.148-0.324-0.24-0.537-0.24-0.008 0-0.016 0-0.024 0l0.001-0h-1.2zM42.464 9.805h1.296c0.008 0 0.017 0 0.026 0 0.229 0 0.434-0.1 0.575-0.259l0.001-0.001c0.141-0.147 0.228-0.346 0.23-0.566v-0.001c-0.012-0.455-0.384-0.819-0.841-0.819-0.006 0-0.011 0-0.017 0h-1.266z"></path>
<path fill="#fff" style="fill: var(--color3, #fff)" d="M45.575 10.421l1.89-5.012h0.728l1.887 5.012h-0.714l-0.48-1.36h-2.107l-0.491 1.36zM46.995 8.461h1.666l-0.822-2.261h-0.028z"></path>
<path fill="#fff" style="fill: var(--color3, #fff)" d="M50.73 10.421v-5.012h0.64v2.149h2.506v-2.149h0.64v5.012h-0.64v-2.261h-2.502v2.261z"></path>
<path fill="#fff" style="fill: var(--color3, #fff)" d="M57.258 10.421h-0.644v-4.396h-1.4v-0.616h3.444v0.616h-1.4z"></path>
<path fill="#fff" style="fill: var(--color3, #fff)" d="M58.487 10.421l1.89-5.012h0.728l1.89 5.012h-0.714l-0.48-1.36h-2.11l-0.491 1.36zM59.908 8.461h1.666l-0.819-2.261h-0.028z"></path>
<path fill="#fff" style="fill: var(--color3, #fff)" d="M66.842 8.125v2.296h-0.644v-2.296h-0.028l-1.946 2.296h-0.84v-0.028l2.114-2.422-2.030-2.53v-0.031h0.784l1.92 2.436h0.028v-2.436h0.644v2.436h0.028l1.92-2.436h0.785v0.031l-2.034 2.53 2.114 2.422v0.028h-0.84l-1.946-2.296z"></path>
<path fill="#fff" style="fill: var(--color3, #fff)" d="M74.133 5.409v5.012h-0.64v-3.12l0.027-0.968h-0.028l-2.548 4.088h-0.672v-5.012h0.644v2.933l-0.028 0.966h0.028l2.436-3.899z"></path>
<path fill="#fff" style="fill: var(--color3, #fff)" d="M76.867 10.421h-0.644v-4.396h-1.4v-0.616h3.444v0.616h-1.4z"></path>
<path fill="#fff" style="fill: var(--color3, #fff)" d="M82.845 5.409v5.012h-0.64v-3.12l0.028-0.966h-0.028l-2.549 4.088h-0.672v-5.014h0.644v2.933l-0.028 0.966h0.027l2.437-3.899z"></path>
<path fill="#fff"   d="M86.71 10.533c-0.352-0.005-0.676-0.116-0.944-0.304l0.005 0.004c-0.307-0.211-0.531-0.522-0.627-0.885l-0.002-0.011 0.587-0.246c0.062 0.244 0.193 0.452 0.37 0.608l0.001 0.001c0.159 0.135 0.366 0.217 0.593 0.217 0.006 0 0.012-0 0.017-0h-0.001c0.006 0 0.013 0 0.020 0 0.251 0 0.481-0.093 0.656-0.246l-0.001 0.001c0.174-0.143 0.284-0.357 0.284-0.598 0-0.004-0-0.008-0-0.012v0.001c0-0.001 0-0.003 0-0.005 0-0.242-0.113-0.457-0.289-0.596l-0.002-0.001c-0.181-0.152-0.416-0.245-0.674-0.245-0.008 0-0.016 0-0.025 0l0.001-0h-0.413v-0.602h0.364c0.010 0 0.023 0.001 0.035 0.001 0.225 0 0.432-0.079 0.593-0.212l-0.002 0.001c0.153-0.129 0.249-0.32 0.249-0.534 0-0.009-0-0.018-0.001-0.028l0 0.001c0-0.008 0.001-0.017 0.001-0.027 0-0.199-0.094-0.377-0.239-0.491l-0.001-0.001c-0.156-0.118-0.353-0.189-0.567-0.189-0.011 0-0.022 0-0.033 0.001l0.002-0c-0.010-0-0.022-0.001-0.033-0.001-0.384 0-0.707 0.263-0.798 0.618l-0.001 0.006-0.595-0.252c0.106-0.276 0.277-0.508 0.494-0.684l0.003-0.002c0.236-0.188 0.538-0.302 0.867-0.302 0.023 0 0.045 0.001 0.067 0.002l-0.003-0c0.016-0.001 0.034-0.001 0.053-0.001 0.39 0 0.746 0.142 1.020 0.377l-0.002-0.002c0.262 0.223 0.427 0.553 0.427 0.921 0 0.010-0 0.019-0 0.029l0-0.001c0 0.009 0 0.020 0 0.031 0 0.441-0.261 0.822-0.638 0.995l-0.007 0.003v0.028c0.235 0.098 0.43 0.252 0.575 0.445l0.003 0.004c0.142 0.19 0.227 0.429 0.227 0.688 0 0.009-0 0.018-0 0.027l0-0.001c0 0.009 0 0.021 0 0.032 0 0.408-0.181 0.774-0.467 1.021l-0.002 0.001c-0.293 0.259-0.679 0.417-1.103 0.417-0.016 0-0.032-0-0.048-0.001l0.002 0z"></path>
    </symbol>
  </defs>
</svg>  